<svg xmlns="http://www.w3.org/2000/svg" xmlns:xlink="http://www.w3.org/1999/xlink" viewBox="0 0 642.13 329.89"><defs><radialGradient id="b" cx="164.84" cy="165.05" r="164.84" gradientUnits="userSpaceOnUse"><stop offset="0" stop-color="#00b1fc"/><stop offset=".35" stop-color="#00affb"/><stop offset=".52" stop-color="#00a7f5"/><stop offset=".64" stop-color="#009aec"/><stop offset=".75" stop-color="#0088e0"/><stop offset=".85" stop-color="#0070cf"/><stop offset=".93" stop-color="#0053bb"/><stop offset="1" stop-color="#0036a7"/></radialGradient><linearGradient id="a" x1="152.56" x2="166.72" y1="283.61" y2="248.78" gradientUnits="userSpaceOnUse"><stop offset="0" stop-color="#fff" stop-opacity="0"/><stop offset="1"/></linearGradient><linearGradient id="c" x1="177.47" x2="182.97" y1="289.65" y2="253.49" xlink:href="#a"/><linearGradient id="d" x1="129.27" x2="152.44" y1="270.51" y2="241.51" xlink:href="#a"/><linearGradient id="e" x1="98.38" x2="132.88" y1="229.21" y2="214.88" xlink:href="#a"/><linearGradient id="f" x1="110.91" x2="140.74" y1="252.11" y2="229.44" xlink:href="#a"/><linearGradient id="g" x1="283.55" x2="248.88" y1="229.2" y2="215.04" xlink:href="#a"/><linearGradient id="h" x1="91.92" x2="128.26" y1="203.86" y2="199.19" xlink:href="#a"/><linearGradient id="i" x1="270.53" x2="240.03" y1="252.18" y2="228.51" xlink:href="#a"/><linearGradient id="j" x1="229.24" x2="214.24" y1="283.52" y2="247.52" xlink:href="#a"/><linearGradient id="k" x1="251.45" x2="229.12" y1="270.09" y2="240.59" xlink:href="#a"/><linearGradient id="l" x1="204.11" x2="198.77" y1="290.24" y2="252.74" xlink:href="#a"/><linearGradient id="m" x1="129.73" x2="152.4" y1="111.45" y2="140.62" xlink:href="#a"/><linearGradient id="n" x1="270.86" x2="240.52" y1="129.55" y2="152.71" xlink:href="#a"/><linearGradient id="o" x1="252.29" x2="228.79" y1="111.29" y2="140.95" xlink:href="#a"/><linearGradient id="p" x1="228.88" x2="215.21" y1="98.54" y2="132.54" xlink:href="#a"/><linearGradient id="q" x1="283.23" x2="248.87" y1="152.57" y2="166.91" xlink:href="#a"/><linearGradient id="r" x1="90.94" x2="128.27" y1="177.45" y2="182.95" xlink:href="#a"/><linearGradient id="s" x1="289.94" x2="252.94" y1="177.62" y2="182.95" xlink:href="#a"/><linearGradient id="t" x1="110.61" x2="141.28" y1="129.69" y2="152.52" xlink:href="#a"/><linearGradient id="u" x1="97.97" x2="132.8" y1="152.64" y2="166.64" xlink:href="#a"/><linearGradient id="v" x1="177.5" x2="182.84" y1="91.42" y2="128.42" xlink:href="#a"/><linearGradient id="w" x1="152.38" x2="166.88" y1="98.4" y2="132.73" xlink:href="#a"/><linearGradient id="x" x1="290.07" x2="252.91" y1="204.01" y2="199.01" xlink:href="#a"/><linearGradient id="y" x1="204.09" x2="198.93" y1="91.15" y2="128.48" xlink:href="#a"/><linearGradient id="z" x1="140.89" x2="152.39" y1="311.42" y2="283.75" xlink:href="#a"/><linearGradient id="A" x1="173.49" x2="177.99" y1="320.96" y2="290.13" xlink:href="#a"/><linearGradient id="B" x1="61.78" x2="91.12" y1="208.04" y2="203.87" xlink:href="#a"/><linearGradient id="C" x1="87.16" x2="111.33" y1="270.51" y2="251.84" xlink:href="#a"/><linearGradient id="D" x1="70.66" x2="98.16" y1="240.81" y2="229.14" xlink:href="#a"/><linearGradient id="E" x1="111.21" x2="129.71" y1="294.68" y2="270.52" xlink:href="#a"/><linearGradient id="F" x1="320.25" x2="291.08" y1="173.77" y2="177.77" xlink:href="#a"/><linearGradient id="G" x1="311.22" x2="283.55" y1="240.78" y2="229.28" xlink:href="#a"/><linearGradient id="H" x1="208.22" x2="203.56" y1="321.1" y2="289.43" xlink:href="#a"/><linearGradient id="I" x1="270.51" x2="251.68" y1="294.88" y2="270.05" xlink:href="#a"/><linearGradient id="J" x1="241.02" x2="228.52" y1="311.41" y2="282.57" xlink:href="#a"/><linearGradient id="K" x1="294.32" x2="270.99" y1="270.19" y2="252.52" xlink:href="#a"/><linearGradient id="L" x1="208.21" x2="203.54" y1="61.28" y2="91.95" xlink:href="#a"/><linearGradient id="M" x1="240.82" x2="229.16" y1="70.37" y2="98.21" xlink:href="#a"/><linearGradient id="N" x1="270.25" x2="251.92" y1="87.59" y2="111.09" xlink:href="#a"/><linearGradient id="O" x1="294.52" x2="270.53" y1="111.21" y2="129.86" xlink:href="#a"/><linearGradient id="P" x1="311.24" x2="283.41" y1="141.12" y2="152.45" xlink:href="#a"/><linearGradient id="Q" x1="61.92" x2="91.25" y1="173.61" y2="178.11" xlink:href="#a"/><linearGradient id="R" x1="70.89" x2="98.06" y1="141.01" y2="152.68" xlink:href="#a"/><linearGradient id="S" x1="87.34" x2="111.5" y1="111.67" y2="129.83" xlink:href="#a"/><linearGradient id="T" x1="173.39" x2="178.05" y1="61.07" y2="91.24" xlink:href="#a"/><linearGradient id="U" x1="140.63" x2="153.13" y1="70.43" y2="99.1" xlink:href="#a"/><linearGradient id="V" x1="110.91" x2="129.75" y1="87.19" y2="110.86" xlink:href="#a"/><linearGradient id="W" x1="320.44" x2="289.77" y1="208.1" y2="203.77" xlink:href="#a"/><linearGradient id="X" x1="253.07" x2="211.9" y1="199.21" y2="193.54" xlink:href="#a"/><linearGradient id="Y" x1="140.38" x2="173.88" y1="229.42" y2="204.08" xlink:href="#a"/><linearGradient id="Z" x1="248.68" x2="210.85" y1="215.1" y2="198.94" xlink:href="#a"/><linearGradient id="aa" x1="128.59" x2="169.72" y1="182.74" y2="188.07" xlink:href="#a"/><linearGradient id="ab" x1="152.49" x2="177.83" y1="240.68" y2="208.02" xlink:href="#a"/><linearGradient id="ac" x1="128.77" x2="169.11" y1="198.99" y2="193.83" xlink:href="#a"/><linearGradient id="ad" x1="132.39" x2="171.56" y1="215.07" y2="198.91" xlink:href="#a"/><linearGradient id="ae" x1="166.57" x2="182.9" y1="249.35" y2="210.18" xlink:href="#a"/><linearGradient id="af" x1="240.96" x2="207.62" y1="229.4" y2="203.73" xlink:href="#a"/><linearGradient id="ag" x1="182.37" x2="188.37" y1="252.83" y2="212" xlink:href="#a"/><linearGradient id="ah" x1="215.09" x2="198.43" y1="248.78" y2="209.95" xlink:href="#a"/><linearGradient id="ai" x1="199.11" x2="193.44" y1="252.76" y2="211.76" xlink:href="#a"/><linearGradient id="aj" x1="229.29" x2="203.63" y1="241.21" y2="207.38" xlink:href="#a"/><linearGradient id="ak" x1="229.01" x2="203.67" y1="141.15" y2="174.15" xlink:href="#a"/><linearGradient id="al" x1="240.45" x2="207.62" y1="152.84" y2="178" xlink:href="#a"/><linearGradient id="am" x1="253.24" x2="211.58" y1="182.75" y2="188.09" xlink:href="#a"/><linearGradient id="an" x1="248.54" x2="210.37" y1="166.57" y2="183.24" xlink:href="#a"/><linearGradient id="ao" x1="214.68" x2="199.34" y1="132.92" y2="170.76" xlink:href="#a"/><linearGradient id="ap" x1="131.94" x2="171.27" y1="166.73" y2="182.56" xlink:href="#a"/><linearGradient id="aq" x1="152.49" x2="177.66" y1="140.91" y2="173.74" xlink:href="#a"/><linearGradient id="ar" x1="141.21" x2="173.71" y1="152.79" y2="177.79" xlink:href="#a"/><linearGradient id="as" x1="182.48" x2="188.15" y1="127.92" y2="170.09" xlink:href="#a"/><linearGradient id="at" x1="199.15" x2="193.65" y1="128.13" y2="169.13" xlink:href="#a"/><linearGradient id="au" x1="166.76" x2="182.59" y1="132.81" y2="170.98" xlink:href="#a"/><linearGradient id="av" x1="91.04" x2="98.54" y1="320.56" y2="311.56" xlink:href="#a"/><linearGradient id="aw" x1="341.58" x2="319.58" y1="211.03" y2="207.53" xlink:href="#a"/><linearGradient id="ax" x1="331.18" x2="311.52" y1="249.04" y2="240.87" xlink:href="#a"/><linearGradient id="ay" x1="352.76" x2="341.09" y1="169.35" y2="171.35" xlink:href="#a"/><linearGradient id="az" x1="311.57" x2="294.23" y1="283.47" y2="270.3" xlink:href="#a"/><linearGradient id="aA" x1="253.56" x2="248.89" y1="39.94" y2="50.28" xlink:href="#a"/><linearGradient id="aB" x1="340.8" x2="330.96" y1="128.74" y2="132.9" xlink:href="#a"/><linearGradient id="aC" x1="289.86" x2="283.52" y1="61.48" y2="70.48" xlink:href="#a"/><linearGradient id="aD" x1="283.2" x2="270.2" y1="311.54" y2="294.04" xlink:href="#a"/><linearGradient id="aE" x1="320.23" x2="311.4" y1="91.42" y2="98.58" xlink:href="#a"/><linearGradient id="aF" x1="40.09" x2="61.09" y1="171.35" y2="173.52" xlink:href="#a"/><linearGradient id="aG" x1="248.8" x2="240.8" y1="331.26" y2="311.1" xlink:href="#a"/><linearGradient id="aH" x1="40.27" x2="60.93" y1="210.77" y2="207.94" xlink:href="#a"/><linearGradient id="aI" x1="213.44" x2="209.78" y1="28.31" y2="39.65" xlink:href="#a"/><linearGradient id="aJ" x1="69.87" x2="87.2" y1="283.56" y2="270.56" xlink:href="#a"/><linearGradient id="aK" x1="49.79" x2="69.95" y1="249.13" y2="241.13" xlink:href="#a"/><linearGradient id="aL" x1="98.64" x2="110.98" y1="311" y2="295" xlink:href="#a"/><linearGradient id="aM" x1="170.44" x2="174.27" y1="341.42" y2="320.92" xlink:href="#a"/><linearGradient id="aN" x1="211.51" x2="207.17" y1="341.97" y2="320.64" xlink:href="#a"/><linearGradient id="aO" x1="132.49" x2="140.99" y1="330.81" y2="312.14" xlink:href="#a"/><linearGradient id="aP" x1="341.46" x2="331.3" y1="253.51" y2="248.84" xlink:href="#a"/><linearGradient id="aQ" x1="253.47" x2="248.81" y1="341.58" y2="331.41" xlink:href="#a"/><linearGradient id="aR" x1="290.36" x2="283.36" y1="320.7" y2="311.37" xlink:href="#a"/><linearGradient id="aS" x1="128.6" x2="132.6" y1="341.53" y2="331.03" xlink:href="#a"/><linearGradient id="aT" x1="170.26" x2="170.26" y1="352.72" y2="341.69" xlink:href="#a"/><linearGradient id="aU" x1="211.41" x2="211.41" y1="352.72" y2="341.69" xlink:href="#a"/><linearGradient id="aV" x1="168.65" x2="171.65" y1="28.19" y2="40.19" xlink:href="#a"/><linearGradient id="aW" x1="50.39" x2="70.39" y1="132.53" y2="141.2" xlink:href="#a"/><linearGradient id="aX" x1="320.27" x2="311.27" y1="290.26" y2="283.26" xlink:href="#a"/><linearGradient id="aY" x1="352.4" x2="341.06" y1="212.09" y2="210.76" xlink:href="#a"/><linearGradient id="aZ" x1="60.9" x2="70.23" y1="91.19" y2="98.36" xlink:href="#a"/><linearGradient id="ba" x1="39.68" x2="50.18" y1="128.29" y2="132.63" xlink:href="#a"/><linearGradient id="bb" x1="91.49" x2="98.66" y1="61.59" y2="70.59" xlink:href="#a"/><linearGradient id="bc" x1="128.46" x2="132.29" y1="39.11" y2="50.61" xlink:href="#a"/><linearGradient id="bd" x1="28.58" x2="39.91" y1="212.08" y2="210.92" xlink:href="#a"/><linearGradient id="be" x1="39.56" x2="50.06" y1="253.9" y2="248.9" xlink:href="#a"/><linearGradient id="bf" x1="29.13" x2="39.63" y1="169.46" y2="171.13" xlink:href="#a"/><linearGradient id="bg" x1="61.49" x2="69.99" y1="290.05" y2="283.72" xlink:href="#a"/><linearGradient id="bh" x1="70.6" x2="86.77" y1="98.42" y2="111.26" xlink:href="#a"/><linearGradient id="bi" x1="98.25" x2="111.25" y1="70.12" y2="87.29" xlink:href="#a"/><linearGradient id="bj" x1="170.53" x2="174.19" y1="39.63" y2="61.63" xlink:href="#a"/><linearGradient id="bk" x1="283.08" x2="270.25" y1="70.21" y2="87.88" xlink:href="#a"/><linearGradient id="bl" x1="249.22" x2="240.72" y1="50.28" y2="70.11" xlink:href="#a"/><linearGradient id="bm" x1="211.76" x2="206.76" y1="39.93" y2="61.77" xlink:href="#a"/><linearGradient id="bn" x1="342.08" x2="320.24" y1="171.09" y2="173.76" xlink:href="#a"/><linearGradient id="bo" x1="311.12" x2="294.45" y1="98.17" y2="111.83" xlink:href="#a"/><linearGradient id="bp" x1="331.36" x2="311.36" y1="132.66" y2="140.99" xlink:href="#a"/><linearGradient id="bq" x1="132.58" x2="140.91" y1="50.65" y2="69.98" xlink:href="#a"/><linearGradient id="br" x1="190.83" x2="190.83" y1="26.45" y2="32.95" xlink:href="#a"/><linearGradient id="bs" x1="233.27" x2="232.18" y1="31.79" y2="37.29" xlink:href="#a"/><linearGradient id="bt" x1="273.47" x2="270.14" y1="47.82" y2="53.49" xlink:href="#a"/><linearGradient id="bu" x1="232.33" x2="227.49" y1="36.99" y2="53.16" xlink:href="#a"/><linearGradient id="bv" x1="307.03" x2="303.36" y1="74.58" y2="78.49" xlink:href="#a"/><linearGradient id="bw" x1="270.76" x2="261.93" y1="52.86" y2="67.36" xlink:href="#a"/><linearGradient id="bx" x1="333.5" x2="328.59" y1="108.57" y2="111.32" xlink:href="#a"/><linearGradient id="by" x1="303.77" x2="291.27" y1="78.29" y2="90.13" xlink:href="#a"/><linearGradient id="bz" x1="261.9" x2="249.23" y1="67.52" y2="90.02" xlink:href="#a"/><linearGradient id="bA" x1="349.5" x2="344.58" y1="148.37" y2="149.71" xlink:href="#a"/><linearGradient id="bB" x1="329" x2="314" y1="111.46" y2="119.46" xlink:href="#a"/><linearGradient id="bC" x1="291.89" x2="272.55" y1="89.76" y2="109.26" xlink:href="#a"/><linearGradient id="bD" x1="355.33" x2="349.72" y1="190.89" y2="190.89" xlink:href="#a"/><linearGradient id="bE" x1="344.18" x2="328.53" y1="149.41" y2="154.41" xlink:href="#a"/><linearGradient id="bF" x1="314.48" x2="291.82" y1="119.29" y2="132.79" xlink:href="#a"/><linearGradient id="bG" x1="273.34" x2="249.18" y1="108.05" y2="132.88" xlink:href="#a"/><linearGradient id="bH" x1="349.78" x2="344.36" y1="233.51" y2="232.01" xlink:href="#a"/><linearGradient id="bI" x1="350.25" x2="333.08" y1="190.73" y2="191.06" xlink:href="#a"/><linearGradient id="bJ" x1="328.43" x2="303.1" y1="154.17" y2="160.67" xlink:href="#a"/><linearGradient id="bK" x1="291.42" x2="262.08" y1="132.63" y2="149.96" xlink:href="#a"/><linearGradient id="bL" x1="333.13" x2="328.47" y1="273.12" y2="270.28" xlink:href="#a"/><linearGradient id="bM" x1="344.83" x2="328.16" y1="232.34" y2="227.51" xlink:href="#a"/><linearGradient id="bN" x1="333.08" x2="307.25" y1="191.31" y2="190.47" xlink:href="#a"/><linearGradient id="bO" x1="303.32" x2="270.47" y1="160.57" y2="169.74" xlink:href="#a"/><linearGradient id="bP" x1="307.19" x2="303.28" y1="307.26" y2="303.34" xlink:href="#a"/><linearGradient id="bQ" x1="329.04" x2="314.2" y1="270.57" y2="262.23" xlink:href="#a"/><linearGradient id="bR" x1="328.47" x2="302.97" y1="228.02" y2="220.69" xlink:href="#a"/><linearGradient id="bS" x1="307.41" x2="273.41" y1="190.89" y2="190.89" xlink:href="#a"/><linearGradient id="bT" x1="273.23" x2="270.23" y1="333.47" y2="328.55" xlink:href="#a"/><linearGradient id="bU" x1="302.65" x2="291.82" y1="303.19" y2="291.36" xlink:href="#a"/><linearGradient id="bV" x1="314.27" x2="291.44" y1="262.07" y2="249.07" xlink:href="#a"/><linearGradient id="bW" x1="302.29" x2="269.62" y1="220.8" y2="211.96" xlink:href="#a"/><linearGradient id="bX" x1="233.25" x2="232.17" y1="349.85" y2="344.52" xlink:href="#a"/><linearGradient id="bY" x1="270.18" x2="262.18" y1="328.49" y2="314.32" xlink:href="#a"/><linearGradient id="bZ" x1="291.53" x2="273.2" y1="291.84" y2="273.01" xlink:href="#a"/><linearGradient id="ca" x1="291.74" x2="261.91" y1="249.13" y2="231.96" xlink:href="#a"/><linearGradient id="cb" x1="190.83" x2="190.83" y1="355.37" y2="349.62" xlink:href="#a"/><linearGradient id="cc" x1="232.2" x2="227.36" y1="344.29" y2="328.29" xlink:href="#a"/><linearGradient id="cd" x1="261.86" x2="249.03" y1="314.13" y2="291.46" xlink:href="#a"/><linearGradient id="ce" x1="273.07" x2="248.57" y1="273.13" y2="248.63" xlink:href="#a"/><linearGradient id="cf" x1="148.19" x2="149.77" y1="349.82" y2="344.41" xlink:href="#a"/><linearGradient id="cg" x1="190.83" x2="190.83" y1="349.9" y2="333.45" xlink:href="#a"/><linearGradient id="ch" x1="227.65" x2="220.98" y1="328.44" y2="303.27" xlink:href="#a"/><linearGradient id="ci" x1="248.69" x2="231.53" y1="290.99" y2="261.5" xlink:href="#a"/><linearGradient id="cj" x1="108.55" x2="111.3" y1="333.32" y2="328.74" xlink:href="#a"/><linearGradient id="ck" x1="149.24" x2="154.57" y1="344.5" y2="328" xlink:href="#a"/><linearGradient id="cl" x1="190.83" x2="190.83" y1="333.12" y2="306.79" xlink:href="#a"/><linearGradient id="cm" x1="221.08" x2="211.91" y1="303.5" y2="269.83" xlink:href="#a"/><linearGradient id="cn" x1="74.43" x2="78.43" y1="307.22" y2="303.38" xlink:href="#a"/><linearGradient id="co" x1="111.37" x2="119.87" y1="328.43" y2="313.93" xlink:href="#a"/><linearGradient id="cp" x1="153.73" x2="160.9" y1="328.83" y2="303.16" xlink:href="#a"/><linearGradient id="cq" x1="190.83" x2="190.83" y1="307.79" y2="272.12" xlink:href="#a"/><linearGradient id="cr" x1="48.21" x2="53.13" y1="273.32" y2="270.32" xlink:href="#a"/><linearGradient id="cs" x1="78.18" x2="90.01" y1="303.55" y2="291.72" xlink:href="#a"/><linearGradient id="ct" x1="119.51" x2="132.68" y1="314.44" y2="291.61" xlink:href="#a"/><linearGradient id="cu" x1="160.26" x2="169.76" y1="303.84" y2="270.67" xlink:href="#a"/><linearGradient id="cv" x1="31.86" x2="37.28" y1="233.6" y2="231.93" xlink:href="#a"/><linearGradient id="cw" x1="53.38" x2="67.88" y1="270.39" y2="261.73" xlink:href="#a"/><linearGradient id="cx" x1="90.01" x2="108.67" y1="291.39" y2="273.39" xlink:href="#a"/><linearGradient id="cy" x1="131.88" x2="150.38" y1="292.14" y2="261.81" xlink:href="#a"/><linearGradient id="cz" x1="165.14" x2="165.14" y1="164.62" y2="164.62" xlink:href="#a"/><linearGradient id="cA" x1="26.25" x2="31.83" y1="190.85" y2="190.94" xlink:href="#a"/><linearGradient id="cB" x1="37.21" x2="53.21" y1="232.16" y2="227.66" xlink:href="#a"/><linearGradient id="cC" x1="67" x2="90.67" y1="262.14" y2="248.98" xlink:href="#a"/><linearGradient id="cD" x1="108.8" x2="132.8" y1="273.01" y2="248.84" xlink:href="#a"/><linearGradient id="cE" x1="165.14" x2="165.14" y1="164.62" y2="164.62" xlink:href="#a"/><linearGradient id="cF" x1="31.75" x2="37.25" y1="148.34" y2="149.67" xlink:href="#a"/><linearGradient id="cG" x1="31.91" x2="47.58" y1="190.81" y2="190.97" xlink:href="#a"/><linearGradient id="cH" x1="53.04" x2="78.04" y1="227.8" y2="221.13" xlink:href="#a"/><linearGradient id="cI" x1="90.25" x2="119.25" y1="249.01" y2="232.18" xlink:href="#a"/><linearGradient id="cJ" x1="48.25" x2="53.33" y1="108.7" y2="111.37" xlink:href="#a"/><linearGradient id="cK" x1="37.07" x2="53.07" y1="149.5" y2="154.17" xlink:href="#a"/><linearGradient id="cL" x1="48.41" x2="74.25" y1="190.89" y2="190.89" xlink:href="#a"/><linearGradient id="cM" x1="78.3" x2="110.97" y1="221" y2="212.34" xlink:href="#a"/><linearGradient id="cN" x1="74.36" x2="78.44" y1="74.42" y2="78.51" xlink:href="#a"/><linearGradient id="cO" x1="52.8" x2="67.8" y1="111.69" y2="119.36" xlink:href="#a"/><linearGradient id="cP" x1="52.42" x2="78.09" y1="153.92" y2="160.58" xlink:href="#a"/><linearGradient id="cQ" x1="75.25" x2="107.75" y1="190.89" y2="190.89" xlink:href="#a"/><linearGradient id="cR" x1="108.45" x2="111.45" y1="48.33" y2="53.25" xlink:href="#a"/><linearGradient id="cS" x1="78.57" x2="89.9" y1="78.63" y2="89.96" xlink:href="#a"/><linearGradient id="cT" x1="68.12" x2="89.95" y1="120.01" y2="132.68" xlink:href="#a"/><linearGradient id="cU" x1="78.37" x2="110.71" y1="160.84" y2="169.34" xlink:href="#a"/><linearGradient id="cV" x1="148.12" x2="149.78" y1="31.75" y2="37.42" xlink:href="#a"/><linearGradient id="cW" x1="190.83" x2="190.83" y1="32.62" y2="48.39" xlink:href="#a"/><linearGradient id="cX" x1="228.05" x2="220.38" y1="53.66" y2="78.83" xlink:href="#a"/><linearGradient id="cY" x1="248.53" x2="232.2" y1="90.28" y2="119.95" xlink:href="#a"/><linearGradient id="cZ" x1="149.29" x2="154.46" y1="37.39" y2="53.55" xlink:href="#a"/><linearGradient id="da" x1="190.83" x2="190.83" y1="48.62" y2="74.63" xlink:href="#a"/><linearGradient id="db" x1="221.31" x2="211.97" y1="77.92" y2="111.26" xlink:href="#a"/><linearGradient id="dc" x1="111.03" x2="119.53" y1="52.79" y2="67.29" xlink:href="#a"/><linearGradient id="dd" x1="154.2" x2="160.37" y1="53.18" y2="78.18" xlink:href="#a"/><linearGradient id="de" x1="190.83" x2="190.83" y1="73.95" y2="109.81" xlink:href="#a"/><linearGradient id="df" x1="119.49" x2="132.66" y1="67.15" y2="90.31" xlink:href="#a"/><linearGradient id="dg" x1="160.74" x2="169.41" y1="78.17" y2="111.33" xlink:href="#a"/><linearGradient id="dh" x1="89.78" x2="108.78" y1="89.92" y2="108.76" xlink:href="#a"/><linearGradient id="di" x1="132.92" x2="149.42" y1="90.95" y2="118.79" xlink:href="#a"/><linearGradient id="dj" x1="165.14" x2="165.14" y1="164.62" y2="164.62" xlink:href="#a"/><linearGradient id="dk" x1="165.14" x2="165.14" y1="164.62" y2="164.62" xlink:href="#a"/><linearGradient id="dl" x1="108.65" x2="132.65" y1="108.55" y2="132.88" xlink:href="#a"/><linearGradient id="dm" x1="90.54" x2="120.04" y1="132.85" y2="150.18" xlink:href="#a"/><linearGradient id="dn" x1="262.29" x2="227.46" y1="149.69" y2="169.69" xlink:href="#a"/><linearGradient id="do" x1="269.81" x2="232.81" y1="169.52" y2="179.85" xlink:href="#a"/><linearGradient id="dp" x1="273.08" x2="233.08" y1="190.73" y2="191.06" xlink:href="#a"/><linearGradient id="dq" x1="270.09" x2="231.92" y1="212.1" y2="201.93" xlink:href="#a"/><linearGradient id="dr" x1="261.9" x2="227.73" y1="232.14" y2="211.98" xlink:href="#a"/><linearGradient id="ds" x1="248.65" x2="220.82" y1="248.55" y2="221.05" xlink:href="#a"/><linearGradient id="dt" x1="231.45" x2="211.95" y1="261.43" y2="227.27" xlink:href="#a"/><linearGradient id="du" x1="211.87" x2="201.87" y1="270.45" y2="230.95" xlink:href="#a"/><linearGradient id="dv" x1="190.83" x2="190.83" y1="272.95" y2="233.23" xlink:href="#a"/><linearGradient id="dw" x1="169.59" x2="179.93" y1="270.29" y2="231.46" xlink:href="#a"/><linearGradient id="dx" x1="149.74" x2="169.57" y1="261.81" y2="227.98" xlink:href="#a"/><linearGradient id="dy" x1="132.72" x2="161.22" y1="248.93" y2="220.59" xlink:href="#a"/><linearGradient id="dz" x1="119.21" x2="154.21" y1="232.23" y2="212.06" xlink:href="#a"/><linearGradient id="dA" x1="111.33" x2="149.83" y1="212.12" y2="201.96" xlink:href="#a"/><linearGradient id="dB" x1="109.25" x2="148.08" y1="190.81" y2="190.98" xlink:href="#a"/><linearGradient id="dC" x1="248.94" x2="220.27" y1="132.63" y2="161.63" xlink:href="#a"/><linearGradient id="dD" x1="231.67" x2="212.51" y1="119.67" y2="153.84" xlink:href="#a"/><linearGradient id="dE" x1="211.72" x2="201.88" y1="112.66" y2="149.99" xlink:href="#a"/><linearGradient id="dF" x1="190.83" x2="190.83" y1="109.12" y2="148.15" xlink:href="#a"/><linearGradient id="dG" x1="169.62" x2="179.95" y1="112.4" y2="149.56" xlink:href="#a"/><linearGradient id="dH" x1="149.95" x2="169.79" y1="120.1" y2="154.43" xlink:href="#a"/><linearGradient id="dI" x1="132.56" x2="160.89" y1="132.79" y2="160.79" xlink:href="#a"/><linearGradient id="dJ" x1="119.32" x2="154.32" y1="149.62" y2="169.79" xlink:href="#a"/><linearGradient id="dK" x1="111.19" x2="149.86" y1="169.32" y2="180.15" xlink:href="#a"/><linearGradient id="dL" x1="165.14" x2="165.14" y1="164.62" y2="164.62" xlink:href="#a"/><linearGradient id="dM" x1="231.6" x2="190.6" y1="180.09" y2="190.84" xlink:href="#a"/><linearGradient id="dN" x1="232.99" x2="189.85" y1="190.89" y2="190.89" xlink:href="#a"/><linearGradient id="dO" x1="231.55" x2="191.18" y1="202.02" y2="190.77" xlink:href="#a"/><linearGradient id="dP" x1="227.31" x2="190.44" y1="212.12" y2="190.49" xlink:href="#a"/><linearGradient id="dQ" x1="220.72" x2="190.59" y1="221.02" y2="190.4" xlink:href="#a"/><linearGradient id="dR" x1="212.21" x2="190.58" y1="227.94" y2="190.44" xlink:href="#a"/><linearGradient id="dS" x1="202.01" x2="190.51" y1="231.97" y2="190.34" xlink:href="#a"/><linearGradient id="dT" x1="190.83" x2="190.83" y1="232.87" y2="190.83" xlink:href="#a"/><linearGradient id="dU" x1="179.72" x2="190.97" y1="232.37" y2="190.37" xlink:href="#a"/><linearGradient id="dV" x1="169.49" x2="191.11" y1="227.89" y2="190.39" xlink:href="#a"/><linearGradient id="dW" x1="161.15" x2="190.9" y1="220.28" y2="191.15" xlink:href="#a"/><linearGradient id="dX" x1="154.22" x2="191.22" y1="212.22" y2="190.47" xlink:href="#a"/><linearGradient id="dY" x1="150.22" x2="191.1" y1="201.68" y2="190.93" xlink:href="#a"/><linearGradient id="dZ" x1="227.17" x2="190.17" y1="169.97" y2="191.22" xlink:href="#a"/><linearGradient id="ea" x1="221.23" x2="190.11" y1="160.49" y2="191.62" xlink:href="#a"/><linearGradient id="eb" x1="212.02" x2="191.15" y1="154.21" y2="190.34" xlink:href="#a"/><linearGradient id="ec" x1="202.03" x2="190.66" y1="149.76" y2="190.88" xlink:href="#a"/><linearGradient id="ed" x1="190.83" x2="190.83" y1="151.12" y2="188.44" xlink:href="#a"/><linearGradient id="ee" x1="180.23" x2="190.35" y1="151.84" y2="188.59" xlink:href="#a"/><linearGradient id="ef" x1="170.81" x2="190.31" y1="156.58" y2="189.58" xlink:href="#a"/><linearGradient id="eg" x1="161.71" x2="189.21" y1="162.15" y2="188.9" xlink:href="#a"/><linearGradient id="eh" x1="154.29" x2="190.17" y1="169.9" y2="190.4" xlink:href="#a"/><linearGradient id="ei" x1="149.24" x2="190.74" y1="179.87" y2="190.75" xlink:href="#a"/><linearGradient id="ej" x1="148.26" x2="190.83" y1="190.89" y2="190.89" xlink:href="#a"/><linearGradient id="ek" x1="165.14" x2="165.14" y1="164.62" y2="164.62" xlink:href="#a"/></defs><g style="isolation:isolate"><circle style="fill:url(#b)" cx="164.84" cy="165.05" r="164.84" data-name="esfera"/><g data-name="grafico" style="opacity:.35000000000000003;mix-blend-mode:overlay"><g style="opacity:.8"><path style="mix-blend-mode:multiply;fill:url(#a)" d="M166.72 249.1a82.51 82.51 0 0 1-17 13.06 81.78 81.78 0 0 0 2.79 21.33 81.93 81.93 0 0 0 17.05-13.11 82.91 82.91 0 0 1-2.84-21.28z" transform="translate(-25.69 -26.27)"/><path style="mix-blend-mode:multiply;fill:url(#c)" d="M182.61 253.35a82 82 0 0 1-13.08 17 82 82 0 0 0 8.22 19.88 81.56 81.56 0 0 0 13.08-17.07 82.83 82.83 0 0 1-8.22-19.81z" transform="translate(-25.69 -26.27)"/><path style="mix-blend-mode:multiply;fill:url(#d)" d="M152.48 240.88a82.47 82.47 0 0 1-19.84 8.2 81.67 81.67 0 0 0-2.82 21.33 81.8 81.8 0 0 0 19.87-8.25 82.75 82.75 0 0 1 2.79-21.28z" transform="translate(-25.69 -26.27)"/><path style="mix-blend-mode:multiply;fill:url(#e)" d="M132.63 215a82.47 82.47 0 0 1-21.28-2.81 81.4 81.4 0 0 0-13.11 17.06 81.73 81.73 0 0 0 21.33 2.75 82.84 82.84 0 0 1 13.06-17z" transform="translate(-25.69 -26.27)"/><path style="mix-blend-mode:multiply;fill:url(#f)" d="M140.85 229.25a82.81 82.81 0 0 1-21.28 2.75 81.63 81.63 0 0 0-8.25 19.87 81.54 81.54 0 0 0 21.32-2.83 82.84 82.84 0 0 1 8.21-19.79z" transform="translate(-25.69 -26.27)"/><path style="mix-blend-mode:multiply;fill:url(#g)" d="M249 215a82.84 82.84 0 0 1 13.06 17 81.78 81.78 0 0 0 21.33-2.79 81.73 81.73 0 0 0-13.11-17.06A82.53 82.53 0 0 1 249 215z" transform="translate(-25.69 -26.27)"/><path style="mix-blend-mode:multiply;fill:url(#h)" d="M128.37 199.12a83 83 0 0 1-19.83-8.23A82 82 0 0 0 91.47 204a81.2 81.2 0 0 0 19.88 8.21 82.54 82.54 0 0 1 17.02-13.09z" transform="translate(-25.69 -26.27)"/><path style="mix-blend-mode:multiply;fill:url(#i)" d="M240.81 229.25a82.43 82.43 0 0 1 8.19 19.83 81.67 81.67 0 0 0 21.33 2.83A81.63 81.63 0 0 0 262.1 232a82.88 82.88 0 0 1-21.29-2.75z" transform="translate(-25.69 -26.27)"/><path style="mix-blend-mode:multiply;fill:url(#j)" d="M214.94 249.1a82.47 82.47 0 0 1-2.81 21.28 81.73 81.73 0 0 0 17.06 13.11 81.78 81.78 0 0 0 2.81-21.33 82.84 82.84 0 0 1-17.06-13.06z" transform="translate(-25.69 -26.27)"/><path style="mix-blend-mode:multiply;fill:url(#k)" d="M229.18 240.87a82.46 82.46 0 0 1 2.8 21.29 81.47 81.47 0 0 0 19.87 8.25 82.1 82.1 0 0 0-2.85-21.33 82.27 82.27 0 0 1-19.82-8.21z" transform="translate(-25.69 -26.27)"/><path style="mix-blend-mode:multiply;fill:url(#l)" d="M199.06 253.35a82.86 82.86 0 0 1-8.23 19.84 82.24 82.24 0 0 0 13.08 17.07 81.56 81.56 0 0 0 8.22-19.88 82.34 82.34 0 0 1-13.07-17.03z" transform="translate(-25.69 -26.27)"/><path style="mix-blend-mode:multiply;fill:url(#m)" d="M152.48 140.91a82.75 82.75 0 0 1-2.79-21.28 81.8 81.8 0 0 0-19.87-8.25 81.67 81.67 0 0 0 2.82 21.33 82.31 82.31 0 0 1 19.84 8.2z" transform="translate(-25.69 -26.27)"/><path style="mix-blend-mode:multiply;fill:url(#n)" d="M240.81 152.54a82.88 82.88 0 0 1 21.29-2.79 81.63 81.63 0 0 0 8.25-19.87 81.67 81.67 0 0 0-21.35 2.83 82.43 82.43 0 0 1-8.19 19.83z" transform="translate(-25.69 -26.27)"/><path style="mix-blend-mode:multiply;fill:url(#o)" d="M229.18 140.91a82.64 82.64 0 0 1 19.84-8.2 82.1 82.1 0 0 0 2.83-21.33 81.47 81.47 0 0 0-19.85 8.25 82.32 82.32 0 0 1-2.82 21.28z" transform="translate(-25.69 -26.27)"/><path style="mix-blend-mode:multiply;fill:url(#p)" d="M214.94 132.69a82.84 82.84 0 0 1 17-13.06 81.78 81.78 0 0 0-2.79-21.33 81.4 81.4 0 0 0-17.06 13.11 82.47 82.47 0 0 1 2.85 21.28z" transform="translate(-25.69 -26.27)"/><path style="mix-blend-mode:multiply;fill:url(#q)" d="M249 166.79a82.53 82.53 0 0 1 21.28 2.81 82 82 0 0 0 13.11-17.06 81.78 81.78 0 0 0-21.33-2.79A82.84 82.84 0 0 1 249 166.79z" transform="translate(-25.69 -26.27)"/><path style="mix-blend-mode:multiply;fill:url(#r)" d="M128.37 182.67a82.54 82.54 0 0 1-17-13.07 81.2 81.2 0 0 0-19.88 8.21 81.56 81.56 0 0 0 17.07 13.08 83.33 83.33 0 0 1 19.81-8.22z" transform="translate(-25.69 -26.27)"/><path style="mix-blend-mode:multiply;fill:url(#s)" d="M253.29 182.67a83 83 0 0 1 19.83 8.22 81.36 81.36 0 0 0 17.08-13.08 81.52 81.52 0 0 0-19.88-8.21 82.6 82.6 0 0 1-17.03 13.07z" transform="translate(-25.69 -26.27)"/><path style="mix-blend-mode:multiply;fill:url(#t)" d="M140.85 152.54a82.84 82.84 0 0 1-8.21-19.83 81.54 81.54 0 0 0-21.32-2.83 81.63 81.63 0 0 0 8.25 19.87 82.81 82.81 0 0 1 21.28 2.79z" transform="translate(-25.69 -26.27)"/><path style="mix-blend-mode:multiply;fill:url(#u)" d="M132.63 166.79a82.84 82.84 0 0 1-13.06-17 81.73 81.73 0 0 0-21.33 2.79 81.65 81.65 0 0 0 13.11 17.06 82.47 82.47 0 0 1 21.28-2.85z" transform="translate(-25.69 -26.27)"/><path style="mix-blend-mode:multiply;fill:url(#v)" d="M182.61 128.43a82.92 82.92 0 0 1 8.22-19.83 81.56 81.56 0 0 0-13.08-17.07 82 82 0 0 0-8.22 19.88 82.24 82.24 0 0 1 13.08 17.02z" transform="translate(-25.69 -26.27)"/><path style="mix-blend-mode:multiply;fill:url(#w)" d="M166.72 132.69a82.91 82.91 0 0 1 2.81-21.28 81.59 81.59 0 0 0-17.05-13.11 81.78 81.78 0 0 0-2.79 21.33 82.51 82.51 0 0 1 17.03 13.06z" transform="translate(-25.69 -26.27)"/><path style="mix-blend-mode:multiply;fill:url(#x)" d="M253.29 199.12a82.6 82.6 0 0 1 17 13.07A81.52 81.52 0 0 0 290.2 204a81.75 81.75 0 0 0-17.08-13.09 82.62 82.62 0 0 1-19.83 8.21z" transform="translate(-25.69 -26.27)"/><path style="mix-blend-mode:multiply;fill:url(#y)" d="M199.06 128.43a82.54 82.54 0 0 1 13.07-17 81.56 81.56 0 0 0-8.22-19.88 82.24 82.24 0 0 0-13.08 17.07 83 83 0 0 1 8.23 19.81z" transform="translate(-25.69 -26.27)"/></g><path style="mix-blend-mode:multiply;fill:url(#z)" d="M152.48 283.49a82.68 82.68 0 0 1-19.85 8.22 82.12 82.12 0 0 0 8.22 19.85 81.86 81.86 0 0 0 19.85-8.23 82.32 82.32 0 0 1-8.22-19.84z" transform="translate(-25.69 -26.27)"/><path style="mix-blend-mode:multiply;fill:url(#A)" d="M177.75 290.26a82.1 82.1 0 0 1-17.05 13.07 82.55 82.55 0 0 0 13.08 17.06 82.16 82.16 0 0 0 17.05-13.09 82.31 82.31 0 0 1-13.08-17.04z" transform="translate(-25.69 -26.27)"/><path style="mix-blend-mode:multiply;fill:url(#B)" d="M91.47 204a82.37 82.37 0 0 1-17-13.09 82.34 82.34 0 0 0-13.09 17.05 82.06 82.06 0 0 0 17 13.08A82.42 82.42 0 0 1 91.47 204z" transform="translate(-25.69 -26.27)"/><path style="mix-blend-mode:multiply;fill:url(#C)" d="M111.32 251.91A82.53 82.53 0 0 1 90 249.1a82.55 82.55 0 0 0-2.81 21.31 82.74 82.74 0 0 0 21.31 2.8 82.17 82.17 0 0 1 2.82-21.3z" transform="translate(-25.69 -26.27)"/><path style="mix-blend-mode:multiply;fill:url(#D)" d="M98.24 229.25A82.26 82.26 0 0 1 78.39 221a82.89 82.89 0 0 0-8.23 19.86A82.76 82.76 0 0 0 90 249.1a82.12 82.12 0 0 1 8.24-19.85z" transform="translate(-25.69 -26.27)"/><path style="mix-blend-mode:multiply;fill:url(#E)" d="M129.82 270.41a82.66 82.66 0 0 1-21.3 2.8 82.3 82.3 0 0 0 2.8 21.31 83 83 0 0 0 21.31-2.81 82.1 82.1 0 0 1-2.81-21.3z" transform="translate(-25.69 -26.27)"/><path style="mix-blend-mode:multiply;fill:url(#F)" d="M290.2 177.81a82.31 82.31 0 0 1 17 13.08 82.71 82.71 0 0 0 13.09-17 81.87 81.87 0 0 0-17.06-13.08 82 82 0 0 1-13.03 17z" transform="translate(-25.69 -26.27)"/><path style="mix-blend-mode:multiply;fill:url(#G)" d="M283.43 229.25a82.09 82.09 0 0 1 8.21 19.85 82.59 82.59 0 0 0 19.86-8.22 82.09 82.09 0 0 0-8.23-19.88 82.35 82.35 0 0 1-19.84 8.25z" transform="translate(-25.69 -26.27)"/><path style="mix-blend-mode:multiply;fill:url(#H)" d="M203.91 290.26a82.31 82.31 0 0 1-13.08 17 82.69 82.69 0 0 0 17 13.09A82.21 82.21 0 0 0 221 303.33a82.37 82.37 0 0 1-17.09-13.07z" transform="translate(-25.69 -26.27)"/><path style="mix-blend-mode:multiply;fill:url(#I)" d="M251.85 270.41a83 83 0 0 1-2.81 21.3 83 83 0 0 0 21.3 2.81 82.3 82.3 0 0 0 2.8-21.31 82.58 82.58 0 0 1-21.29-2.8z" transform="translate(-25.69 -26.27)"/><path style="mix-blend-mode:multiply;fill:url(#J)" d="M229.19 283.49a82.76 82.76 0 0 1-8.19 19.84 82.09 82.09 0 0 0 19.86 8.23 82.52 82.52 0 0 0 8.14-19.85 82.52 82.52 0 0 1-19.81-8.22z" transform="translate(-25.69 -26.27)"/><path style="mix-blend-mode:multiply;fill:url(#K)" d="M270.35 251.91a82.6 82.6 0 0 1 2.79 21.3 82.62 82.62 0 0 0 21.31-2.8 82.12 82.12 0 0 0-2.81-21.31 82.4 82.4 0 0 1-21.29 2.81z" transform="translate(-25.69 -26.27)"/><path style="mix-blend-mode:multiply;fill:url(#L)" d="M203.91 91.53A82.75 82.75 0 0 1 221 78.45a82.41 82.41 0 0 0-13.12-17.05 82.69 82.69 0 0 0-17 13.09 82.31 82.31 0 0 1 13.03 17.04z" transform="translate(-25.69 -26.27)"/><path style="mix-blend-mode:multiply;fill:url(#M)" d="M229.19 98.3A82.52 82.52 0 0 1 249 90.08a82.52 82.52 0 0 0-8.22-19.85A82.45 82.45 0 0 0 221 78.45a83 83 0 0 1 8.19 19.85z" transform="translate(-25.69 -26.27)"/><path style="mix-blend-mode:multiply;fill:url(#N)" d="M251.85 111.38a82.58 82.58 0 0 1 21.29-2.8 82.3 82.3 0 0 0-2.8-21.31A83 83 0 0 0 249 90.08a83 83 0 0 1 2.85 21.3z" transform="translate(-25.69 -26.27)"/><path style="mix-blend-mode:multiply;fill:url(#O)" d="M273.14 108.58a82.6 82.6 0 0 1-2.79 21.3 82.4 82.4 0 0 1 21.29 2.81 82.12 82.12 0 0 0 2.81-21.31 82.62 82.62 0 0 0-21.31-2.8z" transform="translate(-25.69 -26.27)"/><path style="mix-blend-mode:multiply;fill:url(#P)" d="M283.43 152.54a82.35 82.35 0 0 1 19.84 8.23 82.09 82.09 0 0 0 8.23-19.86 82.59 82.59 0 0 0-19.86-8.22 82.09 82.09 0 0 1-8.21 19.85z" transform="translate(-25.69 -26.27)"/><path style="mix-blend-mode:multiply;fill:url(#Q)" d="M91.47 177.81a82.42 82.42 0 0 1-13.08-17 82.06 82.06 0 0 0-17 13.08 82 82 0 0 0 13.09 17 82.31 82.31 0 0 1 16.99-13.08z" transform="translate(-25.69 -26.27)"/><path style="mix-blend-mode:multiply;fill:url(#R)" d="M98.24 152.54A82.12 82.12 0 0 1 90 132.69a82.76 82.76 0 0 0-19.86 8.22 82.89 82.89 0 0 0 8.23 19.86 82.26 82.26 0 0 1 19.87-8.23z" transform="translate(-25.69 -26.27)"/><path style="mix-blend-mode:multiply;fill:url(#S)" d="M111.32 129.88a82.17 82.17 0 0 1-2.8-21.3 82.74 82.74 0 0 0-21.31 2.8A82.55 82.55 0 0 0 90 132.69a82.53 82.53 0 0 1 21.32-2.81z" transform="translate(-25.69 -26.27)"/><path style="mix-blend-mode:multiply;fill:url(#T)" d="M177.75 91.53a82.31 82.31 0 0 1 13.08-17 82.16 82.16 0 0 0-17.05-13.13 82.75 82.75 0 0 0-13.08 17.05 82.49 82.49 0 0 1 17.05 13.08z" transform="translate(-25.69 -26.27)"/><path style="mix-blend-mode:multiply;fill:url(#U)" d="M152.48 98.3a82.55 82.55 0 0 1 8.22-19.85 82.22 82.22 0 0 0-19.85-8.22 82.12 82.12 0 0 0-8.22 19.85 82.68 82.68 0 0 1 19.85 8.22z" transform="translate(-25.69 -26.27)"/><path style="mix-blend-mode:multiply;fill:url(#V)" d="M129.82 111.38a82.1 82.1 0 0 1 2.81-21.3 83 83 0 0 0-21.31-2.81 82.3 82.3 0 0 0-2.8 21.31 82.66 82.66 0 0 1 21.3 2.8z" transform="translate(-25.69 -26.27)"/><path style="fill:none;mix-blend-mode:multiply" d="M148.07 177.73a82.64 82.64 0 0 0 17.07-13.11 82.4 82.4 0 0 0-17.07 13.11zM152.04 181.73a82.16 82.16 0 0 0 13.1-17.08 82.64 82.64 0 0 0-13.1 17.08z"/><path style="fill:none;mix-blend-mode:multiply" d="M165.14 164.62a82.29 82.29 0 0 0-8.23 19.89 82.52 82.52 0 0 0 8.23-19.88z"/><path style="fill:none;mix-blend-mode:multiply" d="M143.8 167.43a81.92 81.92 0 0 0 21.34-2.81 82.54 82.54 0 0 0-21.34 2.81zM162.31 185.96a82 82 0 0 0 2.81-21.33 82.33 82.33 0 0 0-2.81 21.33z"/><path style="fill:none;mix-blend-mode:multiply" d="M182.22 177.73a82.46 82.46 0 0 0-17.08-13.11 82.7 82.7 0 0 0 17.08 13.11zM178.24 181.73a82.3 82.3 0 0 0-13.1-17.08 82.16 82.16 0 0 0 13.1 17.08z"/><path style="fill:none;mix-blend-mode:multiply" d="M143.8 161.82a82.53 82.53 0 0 0 21.34 2.8 82.33 82.33 0 0 0-21.34-2.8z"/><path style="fill:none;mix-blend-mode:multiply" d="M185.03 172.86a83 83 0 0 0-19.89-8.24 81.93 81.93 0 0 0 19.89 8.24zM173.38 184.51a82.73 82.73 0 0 0-8.24-19.89 82.45 82.45 0 0 0 8.24 19.89zM167.95 185.96a82.46 82.46 0 0 0-2.81-21.34 82.42 82.42 0 0 0 2.81 21.34zM165.14 164.62a82.49 82.49 0 0 0 8.24-19.89 82.38 82.38 0 0 0-8.24 19.88z"/><path style="fill:none;mix-blend-mode:multiply" d="M178.24 147.55a82.35 82.35 0 0 0-13.1 17.07 82.24 82.24 0 0 0 13.1-17.07z"/><path style="fill:none;mix-blend-mode:multiply" d="M182.22 151.52a82.64 82.64 0 0 0-17.08 13.1 82.08 82.08 0 0 0 17.08-13.1z"/><path style="fill:none;mix-blend-mode:multiply" d="M165.14 164.62a82.06 82.06 0 0 0-19.83-8.23 82.36 82.36 0 0 0 19.88 8.23z"/><path style="fill:none;mix-blend-mode:multiply" d="M186.48 161.82a82.33 82.33 0 0 0-21.34 2.8 82.53 82.53 0 0 0 21.34-2.8zM185.03 156.39a82.29 82.29 0 0 0-19.89 8.23 82.6 82.6 0 0 0 19.89-8.23zM152.04 147.55a82.59 82.59 0 0 0 13.1 17.07 82.35 82.35 0 0 0-13.1-17.07zM148.07 151.52a82 82 0 0 0 17.07 13.1 82.59 82.59 0 0 0-17.07-13.1zM156.91 144.73a82.06 82.06 0 0 0 8.23 19.88 82.36 82.36 0 0 0-8.23-19.88z"/><path style="fill:none;mix-blend-mode:multiply" d="M162.31 143.29a82.33 82.33 0 0 0 2.81 21.33 82 82 0 0 0-2.81-21.33zM167.95 143.29a82.4 82.4 0 0 0-2.81 21.33 82.33 82.33 0 0 0 2.81-21.33zM145.31 172.86a81.7 81.7 0 0 0 19.88-8.24 82.78 82.78 0 0 0-19.88 8.24z"/><path style="mix-blend-mode:multiply;fill:url(#W)" d="M290.2 204a82 82 0 0 1 13.07 17 81.87 81.87 0 0 0 17.06-13.08 83 83 0 0 0-13.09-17.05A82.37 82.37 0 0 1 290.2 204z" transform="translate(-25.69 -26.27)"/><path style="fill:none;mix-blend-mode:multiply" d="M186.48 167.43a82.54 82.54 0 0 0-21.34-2.81 81.92 81.92 0 0 0 21.34 2.81z"/><g style="opacity:.4"><path style="mix-blend-mode:multiply;fill:url(#X)" d="M212.17 193.7a81.85 81.85 0 0 1 19.83 8.21 82.34 82.34 0 0 0 21.34-2.79 82.91 82.91 0 0 0-19.89-8.23 81.33 81.33 0 0 1-21.28 2.81z" transform="translate(-25.69 -26.27)"/><path style="mix-blend-mode:multiply;fill:url(#Y)" d="M173.76 204a81.6 81.6 0 0 1-19.76 8.18 82.47 82.47 0 0 0-13.12 17.07 82.62 82.62 0 0 0 19.85-8.25 81.59 81.59 0 0 1 13.03-17z" transform="translate(-25.69 -26.27)"/><path style="mix-blend-mode:multiply;fill:url(#Z)" d="M210.72 199.13a81.84 81.84 0 0 1 17 13.05A82.5 82.5 0 0 0 249 215a83 83 0 0 0-17-13.09 81.39 81.39 0 0 1-21.28-2.78z" transform="translate(-25.69 -26.27)"/><path style="mix-blend-mode:multiply;fill:url(#aa)" d="M169.49 188.09a82 82 0 0 1-19.78-8.21 82.45 82.45 0 0 0-21.34 2.79 82.48 82.48 0 0 0 19.89 8.22 81.8 81.8 0 0 1 21.23-2.8z" transform="translate(-25.69 -26.27)"/><path style="mix-blend-mode:multiply;fill:url(#ab)" d="M177.73 208a82.2 82.2 0 0 1-17 13 82.62 82.62 0 0 0-8.25 19.88 82.81 82.81 0 0 0 17.07-13.12 81.6 81.6 0 0 1 8.18-19.76z" transform="translate(-25.69 -26.27)"/><path style="mix-blend-mode:multiply;fill:url(#ac)" d="M169.49 193.7a81.39 81.39 0 0 1-21.23-2.81 82.91 82.91 0 0 0-19.89 8.23 82.45 82.45 0 0 0 21.34 2.79 82 82 0 0 1 19.78-8.21z" transform="translate(-25.69 -26.27)"/><path style="mix-blend-mode:multiply;fill:url(#ad)" d="M171 199.13a81.52 81.52 0 0 1-21.24 2.78A83.22 83.22 0 0 0 132.63 215a82.56 82.56 0 0 0 21.37-2.82 81.58 81.58 0 0 1 17-13.05z" transform="translate(-25.69 -26.27)"/><path style="mix-blend-mode:multiply;fill:url(#ae)" d="M182.6 210.78a82.18 82.18 0 0 1-13 17 82.51 82.51 0 0 0-2.83 21.34A82.71 82.71 0 0 0 179.82 232a81.45 81.45 0 0 1 2.78-21.22z" transform="translate(-25.69 -26.27)"/><path style="mix-blend-mode:multiply;fill:url(#af)" d="M207.91 204a81.54 81.54 0 0 1 13 17 82.79 82.79 0 0 0 19.88 8.25 82.42 82.42 0 0 0-13.11-17.07 81.6 81.6 0 0 1-19.77-8.18z" transform="translate(-25.69 -26.27)"/><path style="mix-blend-mode:multiply;fill:url(#ag)" d="M188 212.23a81.82 81.82 0 0 1-8.2 19.78 82.34 82.34 0 0 0 2.79 21.34 82.32 82.32 0 0 0 8.22-19.89 81.7 81.7 0 0 1-2.81-21.23z" transform="translate(-25.69 -26.27)"/><path style="mix-blend-mode:multiply;fill:url(#ah)" d="M199.07 210.78a81.87 81.87 0 0 1 2.78 21.22 82.67 82.67 0 0 0 13.09 17.09 82.94 82.94 0 0 0-2.82-21.34 81.84 81.84 0 0 1-13.05-16.97z" transform="translate(-25.69 -26.27)"/><path style="mix-blend-mode:multiply;fill:url(#ai)" d="M193.64 212.23a81.7 81.7 0 0 1-2.81 21.23 82.75 82.75 0 0 0 8.23 19.89 82.77 82.77 0 0 0 2.79-21.35 81.85 81.85 0 0 1-8.21-19.77z" transform="translate(-25.69 -26.27)"/><path style="mix-blend-mode:multiply;fill:url(#aj)" d="M203.93 208a81.63 81.63 0 0 1 8.19 19.79 82.63 82.63 0 0 0 17.06 13.11 82.32 82.32 0 0 0-8.25-19.9 82.2 82.2 0 0 1-17-13z" transform="translate(-25.69 -26.27)"/><path style="mix-blend-mode:multiply;fill:url(#ak)" d="M203.93 173.82a82.2 82.2 0 0 1 17-13 82.22 82.22 0 0 0 8.25-19.88A82.67 82.67 0 0 0 212.12 154a81.63 81.63 0 0 1-8.19 19.82z" transform="translate(-25.69 -26.27)"/><path style="mix-blend-mode:multiply;fill:url(#al)" d="M207.91 177.79a81.6 81.6 0 0 1 19.79-8.18 82.42 82.42 0 0 0 13.11-17.07 82.79 82.79 0 0 0-19.88 8.25 81.54 81.54 0 0 1-13.02 17z" transform="translate(-25.69 -26.27)"/><path style="mix-blend-mode:multiply;fill:url(#am)" d="M212.17 188.09a81.75 81.75 0 0 1 21.23 2.8 82.48 82.48 0 0 0 19.89-8.22 82.34 82.34 0 0 0-21.29-2.79 81.85 81.85 0 0 1-19.83 8.21z" transform="translate(-25.69 -26.27)"/><path style="mix-blend-mode:multiply;fill:url(#an)" d="M210.72 182.66a81.39 81.39 0 0 1 21.28-2.78 83 83 0 0 0 17-13.09 82.5 82.5 0 0 0-21.34 2.82 81.84 81.84 0 0 1-16.94 13.05z" transform="translate(-25.69 -26.27)"/><path style="mix-blend-mode:multiply;fill:url(#ao)" d="M199.07 171a81.84 81.84 0 0 1 13.05-17 82.94 82.94 0 0 0 2.82-21.34 82.67 82.67 0 0 0-13.09 17.09 81.87 81.87 0 0 1-2.78 21.25z" transform="translate(-25.69 -26.27)"/><path style="mix-blend-mode:multiply;fill:url(#ap)" d="M171 182.66a81.58 81.58 0 0 1-17-13 82.56 82.56 0 0 0-21.34-2.82 83.22 83.22 0 0 0 17.08 13.09 81.52 81.52 0 0 1 21.26 2.73z" transform="translate(-25.69 -26.27)"/><path style="mix-blend-mode:multiply;fill:url(#aq)" d="M177.73 173.82a81.6 81.6 0 0 1-8.18-19.82 82.47 82.47 0 0 0-17.07-13.12 82.62 82.62 0 0 0 8.25 19.88 82.2 82.2 0 0 1 17 13.06z" transform="translate(-25.69 -26.27)"/><path style="mix-blend-mode:multiply;fill:url(#ar)" d="M173.76 177.79a81.59 81.59 0 0 1-13-17 82.62 82.62 0 0 0-19.88-8.25A82.47 82.47 0 0 0 154 169.61a81.6 81.6 0 0 1 19.76 8.18z" transform="translate(-25.69 -26.27)"/><path style="mix-blend-mode:multiply;fill:url(#as)" d="M188 169.56a81.7 81.7 0 0 1 2.81-21.23 82.55 82.55 0 0 0-8.22-19.9 82.47 82.47 0 0 0-2.79 21.35 81.82 81.82 0 0 1 8.2 19.78z" transform="translate(-25.69 -26.27)"/><path style="mix-blend-mode:multiply;fill:url(#at)" d="M193.64 169.56a81.85 81.85 0 0 1 8.21-19.78 82.9 82.9 0 0 0-2.79-21.35 83 83 0 0 0-8.23 19.9 81.7 81.7 0 0 1 2.81 21.23z" transform="translate(-25.69 -26.27)"/><path style="mix-blend-mode:multiply;fill:url(#au)" d="M182.6 171a81.45 81.45 0 0 1-2.78-21.23 82.71 82.71 0 0 0-13.1-17.09 82.51 82.51 0 0 0 2.83 21.32 82.18 82.18 0 0 1 13.05 17z" transform="translate(-25.69 -26.27)"/></g><path style="mix-blend-mode:multiply;fill:url(#av)" d="M98.24 311.56a82.86 82.86 0 0 1-19.84-8.23 82.05 82.05 0 0 0 13.07 17.06 82.18 82.18 0 0 0 19.86 8.21 83 83 0 0 1-13.09-17.04z" transform="translate(-25.69 -26.27)"/><path style="mix-blend-mode:multiply;fill:url(#aw)" d="M320.33 207.94a81.68 81.68 0 0 1 8.2 19.85 82.41 82.41 0 0 0 13.09-17 82.59 82.59 0 0 0-8.23-19.86 81.76 81.76 0 0 1-13.06 17.01z" transform="translate(-25.69 -26.27)"/><path style="mix-blend-mode:multiply;fill:url(#ax)" d="M311.5 240.88a81.43 81.43 0 0 1 2.79 21.29 82.39 82.39 0 0 0 17.06-13.07 82.71 82.71 0 0 0-2.82-21.31 81.8 81.8 0 0 1-17.03 13.09z" transform="translate(-25.69 -26.27)"/><path style="mix-blend-mode:multiply;fill:url(#ay)" d="M341.62 171a82.77 82.77 0 0 1 8.22 19.85 82.29 82.29 0 0 0 2.82-21.3 82 82 0 0 0-8.24-19.85 82.47 82.47 0 0 1-2.8 21.3z" transform="translate(-25.69 -26.27)"/><path style="mix-blend-mode:multiply;fill:url(#az)" d="M294.45 270.41a81.84 81.84 0 0 1-2.81 21.29 82.67 82.67 0 0 0 19.86-8.22 83 83 0 0 0 2.79-21.31 81.79 81.79 0 0 1-19.84 8.24z" transform="translate(-25.69 -26.27)"/><path style="mix-blend-mode:multiply;fill:url(#aA)" d="M249 50.38a82.6 82.6 0 0 1 21.29 2.81 81.86 81.86 0 0 0-17-13.09A81.56 81.56 0 0 0 232 37.31a82.6 82.6 0 0 1 17 13.07z" transform="translate(-25.69 -26.27)"/><path style="mix-blend-mode:multiply;fill:url(#aB)" d="M331.35 132.69a82.6 82.6 0 0 1 13.07 17.05 81.63 81.63 0 0 0-2.79-21.31 82.09 82.09 0 0 0-13.1-17 82.63 82.63 0 0 1 2.82 21.26z" transform="translate(-25.69 -26.27)"/><path style="mix-blend-mode:multiply;fill:url(#aC)" d="M283.42 70.23a83.1 83.1 0 0 1 19.85 8.23A82.4 82.4 0 0 0 290.2 61.4a82.25 82.25 0 0 0-19.87-8.21 82.68 82.68 0 0 1 13.09 17.04z" transform="translate(-25.69 -26.27)"/><path style="mix-blend-mode:multiply;fill:url(#aD)" d="M270.34 294.52a81.69 81.69 0 0 1-8.23 19.83 82.54 82.54 0 0 0 21.31-2.79 82.67 82.67 0 0 0 8.22-19.86 82.29 82.29 0 0 1-21.3 2.82z" transform="translate(-25.69 -26.27)"/><path style="mix-blend-mode:multiply;fill:url(#aE)" d="M311.5 98.31a82.65 82.65 0 0 1 17 13.08 81.55 81.55 0 0 0-8.21-19.86 81.73 81.73 0 0 0-17.05-13.07 82.76 82.76 0 0 1 8.26 19.85z" transform="translate(-25.69 -26.27)"/><path style="mix-blend-mode:multiply;fill:url(#aF)" d="M61.34 173.85A82.11 82.11 0 0 1 53.13 154 82.76 82.76 0 0 0 40 171a82.38 82.38 0 0 0 8.24 19.85 81.63 81.63 0 0 1 13.1-17z" transform="translate(-25.69 -26.27)"/><path style="mix-blend-mode:multiply;fill:url(#aG)" d="M240.82 311.56a81.8 81.8 0 0 1-13.09 17 82.28 82.28 0 0 0 21.27 2.85 82.39 82.39 0 0 0 13.07-17.06 81.43 81.43 0 0 1-21.25-2.79z" transform="translate(-25.69 -26.27)"/><path style="mix-blend-mode:multiply;fill:url(#aH)" d="M61.34 207.94a81.43 81.43 0 0 1-13.06-17.05A82.62 82.62 0 0 0 40 210.75a82.76 82.76 0 0 0 13.09 17 82.11 82.11 0 0 1 8.25-19.81z" transform="translate(-25.69 -26.27)"/><path style="mix-blend-mode:multiply;fill:url(#aI)" d="M210.68 40.1A83 83 0 0 1 232 37.31a81.63 81.63 0 0 0-19.85-8.24 81.94 81.94 0 0 0-21.31 2.82 82.41 82.41 0 0 1 19.84 8.21z" transform="translate(-25.69 -26.27)"/><path style="mix-blend-mode:multiply;fill:url(#aJ)" d="M87.21 270.41a81.72 81.72 0 0 1-19.83-8.24 82.11 82.11 0 0 0 2.79 21.31A82.67 82.67 0 0 0 90 291.7a81.85 81.85 0 0 1-2.79-21.29z" transform="translate(-25.69 -26.27)"/><path style="mix-blend-mode:multiply;fill:url(#aK)" d="M70.16 240.88a82.33 82.33 0 0 1-17-13.09 82.7 82.7 0 0 0-2.81 21.31 82.39 82.39 0 0 0 17.06 13.07 81.84 81.84 0 0 1 2.75-21.29z" transform="translate(-25.69 -26.27)"/><path style="mix-blend-mode:multiply;fill:url(#aL)" d="M111.32 294.52A82.27 82.27 0 0 1 90 291.7a82.64 82.64 0 0 0 8.21 19.86 82.66 82.66 0 0 0 21.31 2.79 81.69 81.69 0 0 1-8.2-19.83z" transform="translate(-25.69 -26.27)"/><path style="mix-blend-mode:multiply;fill:url(#aM)" d="M173.78 320.39a81.45 81.45 0 0 1-19.84 8.2 82.54 82.54 0 0 0 17 13.1 82.79 82.79 0 0 0 19.85-8.24 82 82 0 0 1-17.01-13.06z" transform="translate(-25.69 -26.27)"/><path style="mix-blend-mode:multiply;fill:url(#aN)" d="M207.88 320.39a81.68 81.68 0 0 1-17 13.06 83.13 83.13 0 0 0 19.85 8.24 82.87 82.87 0 0 0 17-13.1 81.68 81.68 0 0 1-19.85-8.2z" transform="translate(-25.69 -26.27)"/><path style="mix-blend-mode:multiply;fill:url(#aO)" d="M140.85 311.56a81.5 81.5 0 0 1-21.3 2.79 82.78 82.78 0 0 0 13.08 17.06 82.33 82.33 0 0 0 21.31-2.82 81.46 81.46 0 0 1-13.09-17.03z" transform="translate(-25.69 -26.27)"/><path style="mix-blend-mode:multiply;fill:url(#aP)" d="M331.35 249.1a82.69 82.69 0 0 1-2.82 21.3 82.09 82.09 0 0 0 13.1-17 81.69 81.69 0 0 0 2.79-21.31 82.6 82.6 0 0 1-13.07 17.01z" transform="translate(-25.69 -26.27)"/><path style="mix-blend-mode:multiply;fill:url(#aQ)" d="M249 331.41a82.6 82.6 0 0 1-17 13.07 81.56 81.56 0 0 0 21.3-2.79 81.86 81.86 0 0 0 17-13.09 82.6 82.6 0 0 1-21.3 2.81z" transform="translate(-25.69 -26.27)"/><path style="mix-blend-mode:multiply;fill:url(#aR)" d="M283.42 311.56a82.68 82.68 0 0 1-13.09 17 82.25 82.25 0 0 0 19.87-8.21 82.4 82.4 0 0 0 13.07-17.06 83.1 83.1 0 0 1-19.85 8.27z" transform="translate(-25.69 -26.27)"/><path style="mix-blend-mode:multiply;fill:url(#aS)" d="M132.63 331.41a82.62 82.62 0 0 1-21.3-2.81 82.12 82.12 0 0 0 17 13.09 81.58 81.58 0 0 0 21.31 2.79 82.6 82.6 0 0 1-17.01-13.07z" transform="translate(-25.69 -26.27)"/><path style="mix-blend-mode:multiply;fill:url(#aT)" d="M171 341.69a83 83 0 0 1-21.3 2.79 81.86 81.86 0 0 0 19.85 8.24 81.86 81.86 0 0 0 21.3-2.82 83.15 83.15 0 0 1-19.85-8.21z" transform="translate(-25.69 -26.27)"/><path style="mix-blend-mode:multiply;fill:url(#aU)" d="M210.68 341.69a82.81 82.81 0 0 1-19.85 8.21 81.94 81.94 0 0 0 21.31 2.82 82 82 0 0 0 19.86-8.24 83 83 0 0 1-21.32-2.79z" transform="translate(-25.69 -26.27)"/><path style="mix-blend-mode:multiply;fill:url(#aV)" d="M171 40.1a82.74 82.74 0 0 1 19.85-8.21 81.86 81.86 0 0 0-21.3-2.82 81.47 81.47 0 0 0-19.85 8.24A83 83 0 0 1 171 40.1z" transform="translate(-25.69 -26.27)"/><path style="mix-blend-mode:multiply;fill:url(#aW)" d="M70.16 140.91a81.89 81.89 0 0 1-2.78-21.29 82.39 82.39 0 0 0-17.06 13.07A82.7 82.7 0 0 0 53.13 154a82.33 82.33 0 0 1 17.03-13.09z" transform="translate(-25.69 -26.27)"/><path style="mix-blend-mode:multiply;fill:url(#aX)" d="M311.5 283.48a82.76 82.76 0 0 1-8.23 19.85 81.73 81.73 0 0 0 17.05-13.07 81.55 81.55 0 0 0 8.21-19.86 82.65 82.65 0 0 1-17.03 13.08z" transform="translate(-25.69 -26.27)"/><path style="mix-blend-mode:multiply;fill:url(#aY)" d="M341.62 210.75a82.47 82.47 0 0 1 2.8 21.3 82 82 0 0 0 8.24-19.85 82.43 82.43 0 0 0-2.82-21.31 82.67 82.67 0 0 1-8.22 19.86z" transform="translate(-25.69 -26.27)"/><path style="mix-blend-mode:multiply;fill:url(#aZ)" d="M70.17 98.31a82.35 82.35 0 0 1 8.23-19.85 81.79 81.79 0 0 0-17.06 13.07 82.35 82.35 0 0 0-8.21 19.86 82.71 82.71 0 0 1 17.04-13.08z" transform="translate(-25.69 -26.27)"/><path style="mix-blend-mode:multiply;fill:url(#ba)" d="M50.32 132.69a82.62 82.62 0 0 1 2.81-21.3 82 82 0 0 0-13.09 17 81.63 81.63 0 0 0-2.79 21.31 82.6 82.6 0 0 1 13.07-17.01z" transform="translate(-25.69 -26.27)"/><path style="mix-blend-mode:multiply;fill:url(#bb)" d="M98.24 70.23a83 83 0 0 1 13.09-17 82.18 82.18 0 0 0-19.86 8.17A82.05 82.05 0 0 0 78.4 78.46a82.86 82.86 0 0 1 19.84-8.23z" transform="translate(-25.69 -26.27)"/><path style="mix-blend-mode:multiply;fill:url(#bc)" d="M132.63 50.38a82.6 82.6 0 0 1 17.05-13.07 81.58 81.58 0 0 0-21.31 2.79 82.12 82.12 0 0 0-17 13.09 82.62 82.62 0 0 1 21.26-2.81z" transform="translate(-25.69 -26.27)"/><path style="mix-blend-mode:multiply;fill:url(#bd)" d="M40 210.75a82.64 82.64 0 0 1-8.21-19.86A81.57 81.57 0 0 0 29 212.2a81.63 81.63 0 0 0 8.24 19.85 82.47 82.47 0 0 1 2.76-21.3z" transform="translate(-25.69 -26.27)"/><path style="mix-blend-mode:multiply;fill:url(#be)" d="M50.32 249.1a82.6 82.6 0 0 1-13.07-17A81.69 81.69 0 0 0 40 253.36a82 82 0 0 0 13.09 17 82.68 82.68 0 0 1-2.77-21.26z" transform="translate(-25.69 -26.27)"/><path style="mix-blend-mode:multiply;fill:url(#bf)" d="M40 171a82.47 82.47 0 0 1-2.79-21.3A81.63 81.63 0 0 0 29 169.59a81.44 81.44 0 0 0 2.82 21.3A82.74 82.74 0 0 1 40 171z" transform="translate(-25.69 -26.27)"/><path style="mix-blend-mode:multiply;fill:url(#bg)" d="M70.17 283.48a82.71 82.71 0 0 1-17-13.08 82.35 82.35 0 0 0 8.21 19.86 81.79 81.79 0 0 0 17.02 13.07 82.35 82.35 0 0 1-8.23-19.85z" transform="translate(-25.69 -26.27)"/><path style="mix-blend-mode:multiply;fill:url(#bh)" d="M87.21 111.38A81.85 81.85 0 0 1 90 90.09a82.67 82.67 0 0 0-19.86 8.22 82.11 82.11 0 0 0-2.79 21.31 81.72 81.72 0 0 1 19.86-8.24z" transform="translate(-25.69 -26.27)"/><path style="mix-blend-mode:multiply;fill:url(#bi)" d="M111.32 87.27a81.69 81.69 0 0 1 8.23-19.83 82.66 82.66 0 0 0-21.31 2.79A82.64 82.64 0 0 0 90 90.09a82.27 82.27 0 0 1 21.32-2.82z" transform="translate(-25.69 -26.27)"/><path style="mix-blend-mode:multiply;fill:url(#bj)" d="M173.78 61.4a82 82 0 0 1 17.05-13.06A82.79 82.79 0 0 0 171 40.1a82.54 82.54 0 0 0-17 13.1 81.45 81.45 0 0 1 19.78 8.2z" transform="translate(-25.69 -26.27)"/><path style="mix-blend-mode:multiply;fill:url(#bk)" d="M270.34 87.27a82.29 82.29 0 0 1 21.3 2.82 82.67 82.67 0 0 0-8.22-19.86 82.54 82.54 0 0 0-21.31-2.79 81.69 81.69 0 0 1 8.23 19.83z" transform="translate(-25.69 -26.27)"/><path style="mix-blend-mode:multiply;fill:url(#bl)" d="M240.82 70.23a81.43 81.43 0 0 1 21.29-2.79A82.39 82.39 0 0 0 249 50.38a82.28 82.28 0 0 0-21.31 2.82 81.8 81.8 0 0 1 13.13 17.03z" transform="translate(-25.69 -26.27)"/><path style="mix-blend-mode:multiply;fill:url(#bm)" d="M207.88 61.4a81.68 81.68 0 0 1 19.85-8.2 82.87 82.87 0 0 0-17-13.1 83.13 83.13 0 0 0-19.85 8.24 81.68 81.68 0 0 1 17 13.06z" transform="translate(-25.69 -26.27)"/><path style="mix-blend-mode:multiply;fill:url(#bn)" d="M320.33 173.85a82 82 0 0 1 13.06 17 82.35 82.35 0 0 0 8.23-19.85 82.41 82.41 0 0 0-13.09-17 81.68 81.68 0 0 1-8.2 19.85z" transform="translate(-25.69 -26.27)"/><path style="mix-blend-mode:multiply;fill:url(#bo)" d="M294.45 111.38a81.79 81.79 0 0 1 19.84 8.24 83 83 0 0 0-2.79-21.31 82.84 82.84 0 0 0-19.86-8.22 81.84 81.84 0 0 1 2.81 21.29z" transform="translate(-25.69 -26.27)"/><path style="mix-blend-mode:multiply;fill:url(#bp)" d="M311.5 140.91a81.8 81.8 0 0 1 17 13.09 82.71 82.71 0 0 0 2.82-21.31 82.39 82.39 0 0 0-17.06-13.07 81.48 81.48 0 0 1-2.76 21.29z" transform="translate(-25.69 -26.27)"/><path style="mix-blend-mode:multiply;fill:url(#bq)" d="M140.85 70.23a81.46 81.46 0 0 1 13.09-17 82.33 82.33 0 0 0-21.31-2.82 82.78 82.78 0 0 0-13.08 17.06 81.5 81.5 0 0 1 21.3 2.76z" transform="translate(-25.69 -26.27)"/><path style="mix-blend-mode:multiply;fill:url(#br)" d="M212.14 29.07a82.45 82.45 0 0 0-42.61 0 81.86 81.86 0 0 1 21.3 2.82 81.94 81.94 0 0 1 21.31-2.82z" transform="translate(-25.69 -26.27)"/><path style="mix-blend-mode:multiply;fill:url(#bs)" d="M253.29 40.1a82.41 82.41 0 0 0-41.15-11A81.63 81.63 0 0 1 232 37.31a81.56 81.56 0 0 1 21.29 2.79z" transform="translate(-25.69 -26.27)"/><path style="mix-blend-mode:multiply;fill:url(#bt)" d="M290.2 61.4a82.66 82.66 0 0 0-36.91-21.3 81.86 81.86 0 0 1 17 13.09 82.25 82.25 0 0 1 19.91 8.21z" transform="translate(-25.69 -26.27)"/><path style="mix-blend-mode:multiply;fill:url(#bu)" d="M249 50.38a82.6 82.6 0 0 0-17-13.07 83 83 0 0 0-21.31 2.79 82.87 82.87 0 0 1 17 13.1A82.28 82.28 0 0 1 249 50.38z" transform="translate(-25.69 -26.27)"/><path style="mix-blend-mode:multiply;fill:url(#bv)" d="M320.32 91.53A82.52 82.52 0 0 0 290.2 61.4a82.4 82.4 0 0 1 13.07 17.06 81.73 81.73 0 0 1 17.05 13.07z" transform="translate(-25.69 -26.27)"/><path style="mix-blend-mode:multiply;fill:url(#bw)" d="M283.42 70.23a82.68 82.68 0 0 0-13.09-17A82.6 82.6 0 0 0 249 50.38a82.39 82.39 0 0 1 13.07 17.06 82.54 82.54 0 0 1 21.35 2.79z" transform="translate(-25.69 -26.27)"/><path style="mix-blend-mode:multiply;fill:url(#bx)" d="M341.63 128.43a82.46 82.46 0 0 0-21.31-36.9 81.55 81.55 0 0 1 8.21 19.86 82.09 82.09 0 0 1 13.1 17.04z" transform="translate(-25.69 -26.27)"/><path style="mix-blend-mode:multiply;fill:url(#by)" d="M311.5 98.31a82.76 82.76 0 0 0-8.23-19.85 83.1 83.1 0 0 0-19.85-8.23 82.67 82.67 0 0 1 8.22 19.86 82.84 82.84 0 0 1 19.86 8.22z" transform="translate(-25.69 -26.27)"/><path style="mix-blend-mode:multiply;fill:url(#bz)" d="M270.34 87.27a81.69 81.69 0 0 0-8.23-19.83 81.43 81.43 0 0 0-21.29 2.79A82.52 82.52 0 0 1 249 90.08a83 83 0 0 1 21.34-2.81z" transform="translate(-25.69 -26.27)"/><path style="mix-blend-mode:multiply;fill:url(#bA)" d="M352.66 169.59a82.49 82.49 0 0 0-11-41.16 81.63 81.63 0 0 1 2.79 21.31 82 82 0 0 1 8.21 19.85z" transform="translate(-25.69 -26.27)"/><path style="mix-blend-mode:multiply;fill:url(#bB)" d="M331.35 132.69a82.63 82.63 0 0 0-2.82-21.3 82.65 82.65 0 0 0-17-13.08 83 83 0 0 1 2.79 21.31 82.39 82.39 0 0 1 17.03 13.07z" transform="translate(-25.69 -26.27)"/><path style="mix-blend-mode:multiply;fill:url(#bC)" d="M273.14 108.58a82.62 82.62 0 0 1 21.31 2.8 81.84 81.84 0 0 0-2.81-21.29 82.29 82.29 0 0 0-21.3-2.82 82.3 82.3 0 0 1 2.8 21.31z" transform="translate(-25.69 -26.27)"/><path style="mix-blend-mode:multiply;fill:url(#bD)" d="M352.66 169.59a82.29 82.29 0 0 1-2.82 21.3 82.43 82.43 0 0 1 2.82 21.31 82.45 82.45 0 0 0 0-42.61z" transform="translate(-25.69 -26.27)"/><path style="mix-blend-mode:multiply;fill:url(#bE)" d="M341.62 171a82.47 82.47 0 0 0 2.8-21.3 82.6 82.6 0 0 0-13.07-17.05 82.71 82.71 0 0 1-2.82 21.35 82.41 82.41 0 0 1 13.09 17z" transform="translate(-25.69 -26.27)"/><path style="mix-blend-mode:multiply;fill:url(#bF)" d="M311.5 140.91a81.48 81.48 0 0 0 2.79-21.29 81.79 81.79 0 0 0-19.84-8.24 82.12 82.12 0 0 1-2.81 21.31 82.59 82.59 0 0 1 19.86 8.22z" transform="translate(-25.69 -26.27)"/><path style="mix-blend-mode:multiply;fill:url(#bG)" d="M270.35 129.88a82.6 82.6 0 0 0 2.79-21.3 82.58 82.58 0 0 0-21.29 2.8 82.1 82.1 0 0 1-2.85 21.33 81.67 81.67 0 0 1 21.35-2.83z" transform="translate(-25.69 -26.27)"/><path style="mix-blend-mode:multiply;fill:url(#bH)" d="M341.63 253.36a82.49 82.49 0 0 0 11-41.16 82 82 0 0 1-8.24 19.85 81.69 81.69 0 0 1-2.76 21.31z" transform="translate(-25.69 -26.27)"/><path style="mix-blend-mode:multiply;fill:url(#bI)" d="M333.39 190.89a82.59 82.59 0 0 1 8.23 19.86 82.67 82.67 0 0 0 8.22-19.86 82.77 82.77 0 0 0-8.22-19.89 82.35 82.35 0 0 1-8.23 19.89z" transform="translate(-25.69 -26.27)"/><path style="mix-blend-mode:multiply;fill:url(#bJ)" d="M320.33 173.85a81.68 81.68 0 0 0 8.2-19.85 81.8 81.8 0 0 0-17-13.09 82.09 82.09 0 0 1-8.23 19.86 81.87 81.87 0 0 1 17.03 13.08z" transform="translate(-25.69 -26.27)"/><path style="mix-blend-mode:multiply;fill:url(#bK)" d="M283.43 152.54a82.09 82.09 0 0 0 8.21-19.85 82.4 82.4 0 0 0-21.29-2.81 81.63 81.63 0 0 1-8.25 19.87 81.78 81.78 0 0 1 21.33 2.79z" transform="translate(-25.69 -26.27)"/><path style="mix-blend-mode:multiply;fill:url(#bL)" d="M320.32 290.26a82.46 82.46 0 0 0 21.31-36.9 82.09 82.09 0 0 1-13.1 17 81.55 81.55 0 0 1-8.21 19.9z" transform="translate(-25.69 -26.27)"/><path style="mix-blend-mode:multiply;fill:url(#bM)" d="M331.35 249.1a82.6 82.6 0 0 0 13.07-17 82.47 82.47 0 0 0-2.8-21.3 82.41 82.41 0 0 1-13.09 17 82.71 82.71 0 0 1 2.82 21.3z" transform="translate(-25.69 -26.27)"/><path style="mix-blend-mode:multiply;fill:url(#bN)" d="M307.24 190.89a83 83 0 0 1 13.09 17.05 81.76 81.76 0 0 0 13.06-17.05 82 82 0 0 0-13.06-17 82.71 82.71 0 0 1-13.09 17z" transform="translate(-25.69 -26.27)"/><path style="mix-blend-mode:multiply;fill:url(#bO)" d="M290.2 177.81a82 82 0 0 0 13.07-17 82.35 82.35 0 0 0-19.84-8.23 82 82 0 0 1-13.11 17.06 81.52 81.52 0 0 1 19.88 8.17z" transform="translate(-25.69 -26.27)"/><path style="mix-blend-mode:multiply;fill:url(#bP)" d="M290.2 320.39a82.52 82.52 0 0 0 30.12-30.13 81.73 81.73 0 0 1-17.05 13.07 82.4 82.4 0 0 1-13.07 17.06z" transform="translate(-25.69 -26.27)"/><path style="mix-blend-mode:multiply;fill:url(#bQ)" d="M311.5 283.48a82.65 82.65 0 0 0 17-13.08 82.69 82.69 0 0 0 2.82-21.3 82.39 82.39 0 0 1-17.06 13.07 83 83 0 0 1-2.76 21.31z" transform="translate(-25.69 -26.27)"/><path style="mix-blend-mode:multiply;fill:url(#bR)" d="M311.5 240.88a81.8 81.8 0 0 0 17-13.09 81.68 81.68 0 0 0-8.2-19.85A81.87 81.87 0 0 1 303.27 221a82.09 82.09 0 0 1 8.23 19.88z" transform="translate(-25.69 -26.27)"/><path style="mix-blend-mode:multiply;fill:url(#bS)" d="M273.12 190.89A81.75 81.75 0 0 1 290.2 204a82.37 82.37 0 0 0 17-13.09 82.31 82.31 0 0 0-17-13.08 81.36 81.36 0 0 1-17.08 13.06z" transform="translate(-25.69 -26.27)"/><path style="mix-blend-mode:multiply;fill:url(#bT)" d="M253.29 341.69a82.66 82.66 0 0 0 36.91-21.3 82.25 82.25 0 0 1-19.87 8.21 81.86 81.86 0 0 1-17.04 13.09z" transform="translate(-25.69 -26.27)"/><path style="mix-blend-mode:multiply;fill:url(#bU)" d="M283.42 311.56a83.1 83.1 0 0 0 19.85-8.23 82.76 82.76 0 0 0 8.23-19.85 82.67 82.67 0 0 1-19.86 8.22 82.67 82.67 0 0 1-8.22 19.86z" transform="translate(-25.69 -26.27)"/><path style="mix-blend-mode:multiply;fill:url(#bV)" d="M294.45 270.41a81.79 81.79 0 0 0 19.84-8.24 81.43 81.43 0 0 0-2.79-21.29 82.59 82.59 0 0 1-19.86 8.22 82.12 82.12 0 0 1 2.81 21.31z" transform="translate(-25.69 -26.27)"/><path style="mix-blend-mode:multiply;fill:url(#bW)" d="M283.43 229.25a82.35 82.35 0 0 0 19.84-8.25 82 82 0 0 0-13.07-17 81.52 81.52 0 0 1-19.88 8.21 81.73 81.73 0 0 1 13.11 17.04z" transform="translate(-25.69 -26.27)"/><path style="mix-blend-mode:multiply;fill:url(#bX)" d="M212.14 352.72a82.41 82.41 0 0 0 41.15-11 81.56 81.56 0 0 1-21.3 2.79 82 82 0 0 1-19.85 8.21z" transform="translate(-25.69 -26.27)"/><path style="mix-blend-mode:multiply;fill:url(#bY)" d="M249 331.41a82.6 82.6 0 0 0 21.29-2.81 82.68 82.68 0 0 0 13.09-17 82.54 82.54 0 0 1-21.31 2.79A82.39 82.39 0 0 1 249 331.41z" transform="translate(-25.69 -26.27)"/><path style="mix-blend-mode:multiply;fill:url(#bZ)" d="M270.34 294.52a82.29 82.29 0 0 0 21.3-2.82 81.84 81.84 0 0 0 2.81-21.29 82.62 82.62 0 0 1-21.31 2.8 82.3 82.3 0 0 1-2.8 21.31z" transform="translate(-25.69 -26.27)"/><path style="mix-blend-mode:multiply;fill:url(#ca)" d="M270.35 251.91a82.4 82.4 0 0 0 21.29-2.81 82.09 82.09 0 0 0-8.21-19.85A81.78 81.78 0 0 1 262.1 232a81.63 81.63 0 0 1 8.25 19.91z" transform="translate(-25.69 -26.27)"/><path style="mix-blend-mode:multiply;fill:url(#cb)" d="M169.53 352.72a82.45 82.45 0 0 0 42.61 0 81.94 81.94 0 0 1-21.31-2.82 81.86 81.86 0 0 1-21.3 2.82z" transform="translate(-25.69 -26.27)"/><path style="mix-blend-mode:multiply;fill:url(#cc)" d="M210.68 341.69a83 83 0 0 0 21.32 2.79 82.6 82.6 0 0 0 17-13.07 82.28 82.28 0 0 1-21.31-2.82 82.87 82.87 0 0 1-17.01 13.1z" transform="translate(-25.69 -26.27)"/><path style="mix-blend-mode:multiply;fill:url(#cd)" d="M240.82 311.56a81.43 81.43 0 0 0 21.29 2.79 81.69 81.69 0 0 0 8.23-19.83 83 83 0 0 1-21.3-2.81 82.52 82.52 0 0 1-8.22 19.85z" transform="translate(-25.69 -26.27)"/><path style="mix-blend-mode:multiply;fill:url(#ce)" d="M251.85 270.41a82.58 82.58 0 0 0 21.29 2.8 82.6 82.6 0 0 0-2.79-21.3 81.67 81.67 0 0 1-21.35-2.83 82.1 82.1 0 0 1 2.85 21.33z" transform="translate(-25.69 -26.27)"/><path style="mix-blend-mode:multiply;fill:url(#cf)" d="M128.37 341.69a82.41 82.41 0 0 0 41.16 11 81.86 81.86 0 0 1-19.85-8.24 81.58 81.58 0 0 1-21.31-2.76z" transform="translate(-25.69 -26.27)"/><path style="mix-blend-mode:multiply;fill:url(#cg)" d="M171 341.69a83.15 83.15 0 0 0 19.85 8.21 82.81 82.81 0 0 0 19.85-8.21 83.13 83.13 0 0 1-19.85-8.24 82.79 82.79 0 0 1-19.85 8.24z" transform="translate(-25.69 -26.27)"/><path style="mix-blend-mode:multiply;fill:url(#ch)" d="M207.88 320.39a81.68 81.68 0 0 0 19.85 8.2 81.8 81.8 0 0 0 13.09-17 82.09 82.09 0 0 1-19.82-8.26 82.21 82.21 0 0 1-13.12 17.06z" transform="translate(-25.69 -26.27)"/><path style="mix-blend-mode:multiply;fill:url(#ci)" d="M229.19 283.49a82.52 82.52 0 0 0 19.81 8.22 83 83 0 0 0 2.81-21.3 81.47 81.47 0 0 1-19.81-8.25 81.78 81.78 0 0 1-2.81 21.33z" transform="translate(-25.69 -26.27)"/><path style="mix-blend-mode:multiply;fill:url(#cj)" d="M91.47 320.39a82.56 82.56 0 0 0 36.9 21.3 82.12 82.12 0 0 1-17-13.09 82.18 82.18 0 0 1-19.9-8.21z" transform="translate(-25.69 -26.27)"/><path style="mix-blend-mode:multiply;fill:url(#ck)" d="M132.63 331.41a82.6 82.6 0 0 0 17.05 13.07 83 83 0 0 0 21.3-2.79 82.54 82.54 0 0 1-17-13.1 82.33 82.33 0 0 1-21.35 2.82z" transform="translate(-25.69 -26.27)"/><path style="mix-blend-mode:multiply;fill:url(#cl)" d="M173.78 320.39a82 82 0 0 0 17.05 13.06 81.68 81.68 0 0 0 17-13.06 82.69 82.69 0 0 1-17-13.09 82.16 82.16 0 0 1-17.05 13.09z" transform="translate(-25.69 -26.27)"/><path style="mix-blend-mode:multiply;fill:url(#cm)" d="M203.91 290.26A82.37 82.37 0 0 0 221 303.33a82.76 82.76 0 0 0 8.23-19.84 81.73 81.73 0 0 1-17.06-13.11 81.56 81.56 0 0 1-8.26 19.88z" transform="translate(-25.69 -26.27)"/><path style="mix-blend-mode:multiply;fill:url(#cn)" d="M61.34 290.26a82.65 82.65 0 0 0 30.13 30.13 82.05 82.05 0 0 1-13.07-17.06 81.79 81.79 0 0 1-17.06-13.07z" transform="translate(-25.69 -26.27)"/><path style="mix-blend-mode:multiply;fill:url(#co)" d="M98.24 311.56a83 83 0 0 0 13.09 17 82.62 82.62 0 0 0 21.3 2.81 82.78 82.78 0 0 1-13.08-17.06 82.66 82.66 0 0 1-21.31-2.75z" transform="translate(-25.69 -26.27)"/><path style="mix-blend-mode:multiply;fill:url(#cp)" d="M140.85 311.56a81.46 81.46 0 0 0 13.09 17 81.45 81.45 0 0 0 19.84-8.2 82.55 82.55 0 0 1-13.08-17.06 81.86 81.86 0 0 1-19.85 8.26z" transform="translate(-25.69 -26.27)"/><path style="mix-blend-mode:multiply;fill:url(#cq)" d="M177.75 290.26a82.31 82.31 0 0 0 13.08 17 82.31 82.31 0 0 0 13.08-17 82.24 82.24 0 0 1-13.08-17.07 81.56 81.56 0 0 1-13.08 17.07z" transform="translate(-25.69 -26.27)"/><path style="mix-blend-mode:multiply;fill:url(#cr)" d="M40 253.36a82.31 82.31 0 0 0 21.3 36.9 82.35 82.35 0 0 1-8.21-19.86A82 82 0 0 1 40 253.36z" transform="translate(-25.69 -26.27)"/><path style="mix-blend-mode:multiply;fill:url(#cs)" d="M70.17 283.48a82.35 82.35 0 0 0 8.23 19.85 82.86 82.86 0 0 0 19.84 8.23A82.64 82.64 0 0 1 90 291.7a82.67 82.67 0 0 1-19.83-8.22z" transform="translate(-25.69 -26.27)"/><path style="mix-blend-mode:multiply;fill:url(#ct)" d="M111.32 294.52a81.69 81.69 0 0 0 8.23 19.83 81.5 81.5 0 0 0 21.3-2.79 82.12 82.12 0 0 1-8.22-19.85 83 83 0 0 1-21.31 2.81z" transform="translate(-25.69 -26.27)"/><path style="mix-blend-mode:multiply;fill:url(#cu)" d="M152.48 283.49a82.32 82.32 0 0 0 8.22 19.84 82.1 82.1 0 0 0 17.05-13.07 82 82 0 0 1-8.22-19.88 81.93 81.93 0 0 1-17.05 13.11z" transform="translate(-25.69 -26.27)"/><path style="mix-blend-mode:multiply;fill:url(#cv)" d="M29 212.2a82.49 82.49 0 0 0 11 41.16 81.69 81.69 0 0 1-2.79-21.31A81.63 81.63 0 0 1 29 212.2z" transform="translate(-25.69 -26.27)"/><path style="mix-blend-mode:multiply;fill:url(#cw)" d="M50.32 249.1a82.68 82.68 0 0 0 2.81 21.3 82.71 82.71 0 0 0 17 13.08 82.11 82.11 0 0 1-2.79-21.31 82.39 82.39 0 0 1-17.02-13.07z" transform="translate(-25.69 -26.27)"/><path style="mix-blend-mode:multiply;fill:url(#cx)" d="M87.21 270.41A81.85 81.85 0 0 0 90 291.7a82.27 82.27 0 0 0 21.29 2.82 82.3 82.3 0 0 1-2.8-21.31 82.74 82.74 0 0 1-21.28-2.8z" transform="translate(-25.69 -26.27)"/><path style="mix-blend-mode:multiply;fill:url(#cy)" d="M129.82 270.41a82.1 82.1 0 0 0 2.81 21.3 82.68 82.68 0 0 0 19.85-8.22 81.78 81.78 0 0 1-2.79-21.33 81.8 81.8 0 0 1-19.87 8.25z" transform="translate(-25.69 -26.27)"/><path d="M165.14 164.62z" style="mix-blend-mode:multiply;fill:url(#cz)"/><path style="mix-blend-mode:multiply;fill:url(#cA)" d="M29 169.59a82.45 82.45 0 0 0 0 42.61 81.57 81.57 0 0 1 2.82-21.31 81.44 81.44 0 0 1-2.82-21.3z" transform="translate(-25.69 -26.27)"/><path style="mix-blend-mode:multiply;fill:url(#cB)" d="M40 210.75a82.47 82.47 0 0 0-2.79 21.3 82.6 82.6 0 0 0 13.07 17 82.7 82.7 0 0 1 2.81-21.31A82.76 82.76 0 0 1 40 210.75z" transform="translate(-25.69 -26.27)"/><path style="mix-blend-mode:multiply;fill:url(#cC)" d="M70.16 240.88a81.84 81.84 0 0 0-2.78 21.29 81.72 81.72 0 0 0 19.83 8.24A82.55 82.55 0 0 1 90 249.1a82.76 82.76 0 0 1-19.84-8.22z" transform="translate(-25.69 -26.27)"/><path style="mix-blend-mode:multiply;fill:url(#cD)" d="M111.32 251.91a82.17 82.17 0 0 0-2.8 21.3 82.66 82.66 0 0 0 21.3-2.8 81.67 81.67 0 0 1 2.82-21.33 81.54 81.54 0 0 1-21.32 2.83z" transform="translate(-25.69 -26.27)"/><path d="M165.14 164.62z" style="mix-blend-mode:multiply;fill:url(#cE)"/><path style="mix-blend-mode:multiply;fill:url(#cF)" d="M40 128.43a82.49 82.49 0 0 0-11 41.16 81.63 81.63 0 0 1 8.24-19.85A81.63 81.63 0 0 1 40 128.43z" transform="translate(-25.69 -26.27)"/><path style="mix-blend-mode:multiply;fill:url(#cG)" d="M40 171a82.74 82.74 0 0 0-8.21 19.85 82.64 82.64 0 0 0 8.21 19.9 82.62 82.62 0 0 1 8.24-19.86A82.38 82.38 0 0 1 40 171z" transform="translate(-25.69 -26.27)"/><path style="mix-blend-mode:multiply;fill:url(#cH)" d="M61.34 207.94a82.11 82.11 0 0 0-8.21 19.85 82.33 82.33 0 0 0 17 13.09A82.89 82.89 0 0 1 78.39 221a82.06 82.06 0 0 1-17.05-13.06z" transform="translate(-25.69 -26.27)"/><path style="mix-blend-mode:multiply;fill:url(#cI)" d="M98.24 229.25A82.12 82.12 0 0 0 90 249.1a82.53 82.53 0 0 0 21.3 2.81 81.63 81.63 0 0 1 8.27-19.91 81.73 81.73 0 0 1-21.33-2.75z" transform="translate(-25.69 -26.27)"/><path style="mix-blend-mode:multiply;fill:url(#cJ)" d="M61.34 91.53A82.31 82.31 0 0 0 40 128.43a82 82 0 0 1 13.09-17 82.35 82.35 0 0 1 8.25-19.9z" transform="translate(-25.69 -26.27)"/><path style="mix-blend-mode:multiply;fill:url(#cK)" d="M50.32 132.69a82.6 82.6 0 0 0-13.07 17.05A82.47 82.47 0 0 0 40 171a82.76 82.76 0 0 1 13.09-17 82.7 82.7 0 0 1-2.77-21.31z" transform="translate(-25.69 -26.27)"/><path style="mix-blend-mode:multiply;fill:url(#cL)" d="M61.34 173.85a81.63 81.63 0 0 0-13.06 17 81.43 81.43 0 0 0 13.06 17.05 82.34 82.34 0 0 1 13.09-17.05 82 82 0 0 1-13.09-17z" transform="translate(-25.69 -26.27)"/><path style="mix-blend-mode:multiply;fill:url(#cM)" d="M91.47 204a82.42 82.42 0 0 0-13.08 17 82.26 82.26 0 0 0 19.85 8.23 81.4 81.4 0 0 1 13.11-17.06A81.2 81.2 0 0 1 91.47 204z" transform="translate(-25.69 -26.27)"/><path style="mix-blend-mode:multiply;fill:url(#cN)" d="M91.47 61.4a82.65 82.65 0 0 0-30.13 30.13A81.79 81.79 0 0 1 78.4 78.46 82.05 82.05 0 0 1 91.47 61.4z" transform="translate(-25.69 -26.27)"/><path style="mix-blend-mode:multiply;fill:url(#cO)" d="M70.17 98.31a82.71 82.71 0 0 0-17 13.08 82.62 82.62 0 0 0-2.81 21.3 82.39 82.39 0 0 1 17.06-13.07 82.11 82.11 0 0 1 2.75-21.31z" transform="translate(-25.69 -26.27)"/><path style="mix-blend-mode:multiply;fill:url(#cP)" d="M70.16 140.91a82.33 82.33 0 0 0-17 13.09 82.11 82.11 0 0 0 8.21 19.85 82.06 82.06 0 0 1 17-13.08 82.89 82.89 0 0 1-8.21-19.86z" transform="translate(-25.69 -26.27)"/><path style="mix-blend-mode:multiply;fill:url(#cQ)" d="M91.47 177.81a82.31 82.31 0 0 0-17 13.08 82.37 82.37 0 0 0 17 13.09 82 82 0 0 1 17.07-13.09 81.56 81.56 0 0 1-17.07-13.08z" transform="translate(-25.69 -26.27)"/><path style="mix-blend-mode:multiply;fill:url(#cR)" d="M128.37 40.1a82.56 82.56 0 0 0-36.9 21.3 82.18 82.18 0 0 1 19.86-8.21 82.12 82.12 0 0 1 17.04-13.09z" transform="translate(-25.69 -26.27)"/><path style="mix-blend-mode:multiply;fill:url(#cS)" d="M98.24 70.23a82.86 82.86 0 0 0-19.84 8.23 82.35 82.35 0 0 0-8.23 19.85A82.67 82.67 0 0 1 90 90.09a82.64 82.64 0 0 1 8.24-19.86z" transform="translate(-25.69 -26.27)"/><path style="mix-blend-mode:multiply;fill:url(#cT)" d="M87.21 111.38a81.72 81.72 0 0 0-19.83 8.24 81.89 81.89 0 0 0 2.78 21.29A82.76 82.76 0 0 1 90 132.69a82.55 82.55 0 0 1-2.79-21.31z" transform="translate(-25.69 -26.27)"/><path style="mix-blend-mode:multiply;fill:url(#cU)" d="M98.24 152.54a82.26 82.26 0 0 0-19.85 8.23 82.42 82.42 0 0 0 13.08 17 81.2 81.2 0 0 1 19.88-8.21 81.65 81.65 0 0 1-13.11-17.02z" transform="translate(-25.69 -26.27)"/><path style="mix-blend-mode:multiply;fill:url(#cV)" d="M169.53 29.07a82.41 82.41 0 0 0-41.16 11 81.58 81.58 0 0 1 21.31-2.79 81.47 81.47 0 0 1 19.85-8.21z" transform="translate(-25.69 -26.27)"/><path style="mix-blend-mode:multiply;fill:url(#cW)" d="M210.68 40.1a82.41 82.41 0 0 0-19.85-8.21A82.74 82.74 0 0 0 171 40.1a82.79 82.79 0 0 1 19.85 8.24 83.13 83.13 0 0 1 19.83-8.24z" transform="translate(-25.69 -26.27)"/><path style="mix-blend-mode:multiply;fill:url(#cX)" d="M240.82 70.23a81.8 81.8 0 0 0-13.09-17 81.68 81.68 0 0 0-19.85 8.2A82.41 82.41 0 0 1 221 78.45a82.45 82.45 0 0 1 19.82-8.22z" transform="translate(-25.69 -26.27)"/><path style="mix-blend-mode:multiply;fill:url(#cY)" d="M251.85 111.38a83 83 0 0 0-2.85-21.3 82.52 82.52 0 0 0-19.85 8.22 81.78 81.78 0 0 1 2.85 21.33 81.47 81.47 0 0 1 19.85-8.25z" transform="translate(-25.69 -26.27)"/><path style="mix-blend-mode:multiply;fill:url(#cZ)" d="M171 40.1a83 83 0 0 0-21.3-2.79 82.6 82.6 0 0 0-17.05 13.07 82.33 82.33 0 0 1 21.31 2.82A82.54 82.54 0 0 1 171 40.1z" transform="translate(-25.69 -26.27)"/><path style="mix-blend-mode:multiply;fill:url(#da)" d="M207.88 61.4a81.68 81.68 0 0 0-17-13.06 82 82 0 0 0-17.1 13.06 82.16 82.16 0 0 1 17.05 13.09 82.69 82.69 0 0 1 17.05-13.09z" transform="translate(-25.69 -26.27)"/><path style="mix-blend-mode:multiply;fill:url(#db)" d="M229.19 98.3A83 83 0 0 0 221 78.45a82.75 82.75 0 0 0-17.05 13.08 81.56 81.56 0 0 1 8.22 19.88 81.4 81.4 0 0 1 17.02-13.11z" transform="translate(-25.69 -26.27)"/><path style="mix-blend-mode:multiply;fill:url(#dc)" d="M132.63 50.38a82.62 82.62 0 0 0-21.3 2.81 83 83 0 0 0-13.09 17 82.66 82.66 0 0 1 21.31-2.79 82.78 82.78 0 0 1 13.08-17.02z" transform="translate(-25.69 -26.27)"/><path style="mix-blend-mode:multiply;fill:url(#dd)" d="M173.78 61.4a81.45 81.45 0 0 0-19.84-8.2 81.46 81.46 0 0 0-13.09 17 82.22 82.22 0 0 1 19.85 8.22 82.75 82.75 0 0 1 13.08-17.02z" transform="translate(-25.69 -26.27)"/><path style="mix-blend-mode:multiply;fill:url(#de)" d="M203.91 91.53a82.31 82.31 0 0 0-13.08-17 82.31 82.31 0 0 0-13.08 17 81.56 81.56 0 0 1 13.08 17.07 82.24 82.24 0 0 1 13.08-17.07z" transform="translate(-25.69 -26.27)"/><path style="mix-blend-mode:multiply;fill:url(#df)" d="M140.85 70.23a81.5 81.5 0 0 0-21.3-2.79 81.69 81.69 0 0 0-8.23 19.83 83 83 0 0 1 21.31 2.81 82.12 82.12 0 0 1 8.22-19.85z" transform="translate(-25.69 -26.27)"/><path style="mix-blend-mode:multiply;fill:url(#dg)" d="M177.75 91.53a82.49 82.49 0 0 0-17.05-13.08 82.55 82.55 0 0 0-8.22 19.85 81.59 81.59 0 0 1 17.05 13.11 82 82 0 0 1 8.22-19.88z" transform="translate(-25.69 -26.27)"/><path style="mix-blend-mode:multiply;fill:url(#dh)" d="M111.32 87.27A82.27 82.27 0 0 0 90 90.09a81.85 81.85 0 0 0-2.82 21.29 82.74 82.74 0 0 1 21.31-2.8 82.3 82.3 0 0 1 2.83-21.31z" transform="translate(-25.69 -26.27)"/><path style="mix-blend-mode:multiply;fill:url(#di)" d="M152.48 98.3a82.68 82.68 0 0 0-19.85-8.22 82.1 82.1 0 0 0-2.81 21.3 81.8 81.8 0 0 1 19.87 8.25 81.78 81.78 0 0 1 2.79-21.33z" transform="translate(-25.69 -26.27)"/><path d="M165.14 164.62z" style="mix-blend-mode:multiply;fill:url(#dj)"/><path d="M165.14 164.62z" style="mix-blend-mode:multiply;fill:url(#dk)"/><path style="mix-blend-mode:multiply;fill:url(#dl)" d="M129.82 111.38a82.66 82.66 0 0 0-21.3-2.8 82.17 82.17 0 0 0 2.8 21.3 81.54 81.54 0 0 1 21.32 2.83 81.67 81.67 0 0 1-2.82-21.33z" transform="translate(-25.69 -26.27)"/><path style="mix-blend-mode:multiply;fill:url(#dm)" d="M111.32 129.88A82.53 82.53 0 0 0 90 132.69a82.12 82.12 0 0 0 8.22 19.85 81.73 81.73 0 0 1 21.33-2.79 81.63 81.63 0 0 1-8.23-19.87z" transform="translate(-25.69 -26.27)"/><g style="opacity:.6000000000000001"><path style="mix-blend-mode:multiply;fill:url(#dn)" d="M249 166.79a82.84 82.84 0 0 0 13.06-17 82.88 82.88 0 0 0-21.29 2.79 82.42 82.42 0 0 1-13.11 17.07 82.5 82.5 0 0 1 21.34-2.86z" transform="translate(-25.69 -26.27)"/><path style="mix-blend-mode:multiply;fill:url(#do)" d="M253.29 182.67a82.6 82.6 0 0 0 17-13.07 82.53 82.53 0 0 0-21.29-2.81 83 83 0 0 1-17 13.09 82.34 82.34 0 0 1 21.29 2.79z" transform="translate(-25.69 -26.27)"/><path style="mix-blend-mode:multiply;fill:url(#dp)" d="M233.4 190.89a82.91 82.91 0 0 1 19.89 8.23 82.62 82.62 0 0 0 19.83-8.23 83 83 0 0 0-19.83-8.22 82.48 82.48 0 0 1-19.89 8.22z" transform="translate(-25.69 -26.27)"/><path style="mix-blend-mode:multiply;fill:url(#dq)" d="M249 215a82.53 82.53 0 0 0 21.28-2.81 82.6 82.6 0 0 0-17-13.07 82.34 82.34 0 0 1-21.28 2.79A83 83 0 0 1 249 215z" transform="translate(-25.69 -26.27)"/><path style="mix-blend-mode:multiply;fill:url(#dr)" d="M240.81 229.25A82.88 82.88 0 0 0 262.1 232a82.84 82.84 0 0 0-13.1-17 82.5 82.5 0 0 1-21.34-2.82 82.42 82.42 0 0 1 13.15 17.07z" transform="translate(-25.69 -26.27)"/><path style="mix-blend-mode:multiply;fill:url(#ds)" d="M229.18 240.87a82.27 82.27 0 0 0 19.82 8.21 82.43 82.43 0 0 0-8.21-19.83 82.79 82.79 0 0 1-19.86-8.25 82.32 82.32 0 0 1 8.25 19.87z" transform="translate(-25.69 -26.27)"/><path style="mix-blend-mode:multiply;fill:url(#dt)" d="M214.94 249.1a82.84 82.84 0 0 0 17 13.06 82.46 82.46 0 0 0-2.8-21.29 82.63 82.63 0 0 1-17.06-13.11 82.94 82.94 0 0 1 2.86 21.34z" transform="translate(-25.69 -26.27)"/><path style="mix-blend-mode:multiply;fill:url(#du)" d="M199.06 253.35a82.34 82.34 0 0 0 13.07 17 82.47 82.47 0 0 0 2.81-21.28A82.67 82.67 0 0 1 201.85 232a82.77 82.77 0 0 1-2.79 21.35z" transform="translate(-25.69 -26.27)"/><path style="mix-blend-mode:multiply;fill:url(#dv)" d="M182.61 253.35a82.83 82.83 0 0 0 8.22 19.84 82.86 82.86 0 0 0 8.23-19.84 82.75 82.75 0 0 1-8.23-19.89 82.32 82.32 0 0 1-8.22 19.89z" transform="translate(-25.69 -26.27)"/><path style="mix-blend-mode:multiply;fill:url(#dw)" d="M166.72 249.1a82.91 82.91 0 0 0 2.81 21.28 82 82 0 0 0 13.08-17 82.34 82.34 0 0 1-2.79-21.38 82.71 82.71 0 0 1-13.1 17.1z" transform="translate(-25.69 -26.27)"/><path style="mix-blend-mode:multiply;fill:url(#dx)" d="M152.48 240.88a82.75 82.75 0 0 0-2.79 21.28 82.51 82.51 0 0 0 17-13.06 82.51 82.51 0 0 1 2.83-21.34 82.81 82.81 0 0 1-17.04 13.12z" transform="translate(-25.69 -26.27)"/><path style="mix-blend-mode:multiply;fill:url(#dy)" d="M140.85 229.25a82.84 82.84 0 0 0-8.21 19.83 82.47 82.47 0 0 0 19.84-8.2 82.62 82.62 0 0 1 8.25-19.88 82.62 82.62 0 0 1-19.88 8.25z" transform="translate(-25.69 -26.27)"/><path style="mix-blend-mode:multiply;fill:url(#dz)" d="M132.63 215a82.84 82.84 0 0 0-13.06 17 82.81 82.81 0 0 0 21.28-2.79A82.47 82.47 0 0 1 154 212.18a82.56 82.56 0 0 1-21.37 2.82z" transform="translate(-25.69 -26.27)"/><path style="mix-blend-mode:multiply;fill:url(#dA)" d="M128.37 199.12a82.54 82.54 0 0 0-17 13.07 82.47 82.47 0 0 0 21.26 2.81 83.22 83.22 0 0 1 17.08-13.09 82.45 82.45 0 0 1-21.34-2.79z" transform="translate(-25.69 -26.27)"/><path style="mix-blend-mode:multiply;fill:url(#dB)" d="M128.37 182.67a83.33 83.33 0 0 0-19.83 8.22 83 83 0 0 0 19.83 8.23 82.91 82.91 0 0 1 19.89-8.23 82.48 82.48 0 0 1-19.89-8.22z" transform="translate(-25.69 -26.27)"/><path style="mix-blend-mode:multiply;fill:url(#dC)" d="M240.81 152.54a82.43 82.43 0 0 0 8.19-19.83 82.64 82.64 0 0 0-19.84 8.2 82.22 82.22 0 0 1-8.25 19.88 82.79 82.79 0 0 1 19.9-8.25z" transform="translate(-25.69 -26.27)"/><path style="mix-blend-mode:multiply;fill:url(#dD)" d="M229.18 140.91a82.32 82.32 0 0 0 2.8-21.28 82.84 82.84 0 0 0-17 13.06 82.94 82.94 0 0 1-2.86 21.31 82.67 82.67 0 0 1 17.06-13.09z" transform="translate(-25.69 -26.27)"/><path style="mix-blend-mode:multiply;fill:url(#dE)" d="M214.94 132.69a82.47 82.47 0 0 0-2.81-21.28 82.54 82.54 0 0 0-13.07 17 82.9 82.9 0 0 1 2.79 21.35 82.67 82.67 0 0 1 13.09-17.07z" transform="translate(-25.69 -26.27)"/><path style="mix-blend-mode:multiply;fill:url(#dF)" d="M199.06 128.43a83 83 0 0 0-8.23-19.83 82.92 82.92 0 0 0-8.22 19.83 82.55 82.55 0 0 1 8.22 19.9 83 83 0 0 1 8.23-19.9z" transform="translate(-25.69 -26.27)"/><path style="mix-blend-mode:multiply;fill:url(#dG)" d="M182.61 128.43a82.24 82.24 0 0 0-13.08-17 82.91 82.91 0 0 0-2.81 21.28 82.71 82.71 0 0 1 13.1 17.09 82.47 82.47 0 0 1 2.79-21.37z" transform="translate(-25.69 -26.27)"/><path style="mix-blend-mode:multiply;fill:url(#dH)" d="M166.72 132.69a82.51 82.51 0 0 0-17-13.06 82.75 82.75 0 0 0 2.79 21.28A82.47 82.47 0 0 1 169.55 154a82.51 82.51 0 0 1-2.83-21.31z" transform="translate(-25.69 -26.27)"/><path style="mix-blend-mode:multiply;fill:url(#dI)" d="M152.48 140.91a82.31 82.31 0 0 0-19.84-8.2 82.84 82.84 0 0 0 8.21 19.83 82.62 82.62 0 0 1 19.88 8.25 82.62 82.62 0 0 1-8.25-19.88z" transform="translate(-25.69 -26.27)"/><path style="mix-blend-mode:multiply;fill:url(#dJ)" d="M140.85 152.54a82.81 82.81 0 0 0-21.28-2.79 82.84 82.84 0 0 0 13.06 17 82.56 82.56 0 0 1 21.37 2.86 82.47 82.47 0 0 1-13.15-17.07z" transform="translate(-25.69 -26.27)"/><path style="mix-blend-mode:multiply;fill:url(#dK)" d="M132.63 166.79a82.47 82.47 0 0 0-21.28 2.81 82.54 82.54 0 0 0 17 13.07 82.45 82.45 0 0 1 21.34-2.79 83.22 83.22 0 0 1-17.06-13.09z" transform="translate(-25.69 -26.27)"/></g><path d="M165.14 164.62z" style="mix-blend-mode:multiply;fill:url(#dL)"/><g style="opacity:.2"><path style="mix-blend-mode:multiply;fill:url(#dM)" d="M212.17 188.09a81.85 81.85 0 0 0 19.83-8.21 81.39 81.39 0 0 0-21.23 2.78 82.6 82.6 0 0 1-19.89 8.23 82.33 82.33 0 0 1 21.29-2.8z" transform="translate(-25.69 -26.27)"/><path style="mix-blend-mode:multiply;fill:url(#dN)" d="M190.83 190.89a82.54 82.54 0 0 1 21.34 2.81 81.33 81.33 0 0 0 21.23-2.81 81.75 81.75 0 0 0-21.23-2.8 82.53 82.53 0 0 1-21.34 2.8z" transform="translate(-25.69 -26.27)"/><path style="mix-blend-mode:multiply;fill:url(#dO)" d="M210.72 199.13a81.39 81.39 0 0 0 21.28 2.78 81.85 81.85 0 0 0-19.78-8.21 81.92 81.92 0 0 1-21.34-2.81 83 83 0 0 1 19.84 8.24z" transform="translate(-25.69 -26.27)"/><path style="mix-blend-mode:multiply;fill:url(#dP)" d="M207.91 204a81.6 81.6 0 0 0 19.79 8.18 81.84 81.84 0 0 0-17-13.05 81.93 81.93 0 0 1-19.89-8.24 82.46 82.46 0 0 1 17.1 13.11z" transform="translate(-25.69 -26.27)"/><path style="mix-blend-mode:multiply;fill:url(#dQ)" d="M203.93 208a82.2 82.2 0 0 0 17 13 81.54 81.54 0 0 0-13-17 82.7 82.7 0 0 1-17.08-13.11A82.3 82.3 0 0 1 203.93 208z" transform="translate(-25.69 -26.27)"/><path style="mix-blend-mode:multiply;fill:url(#dR)" d="M199.07 210.78a81.84 81.84 0 0 0 13.05 17 81.63 81.63 0 0 0-8.19-19.78 82.16 82.16 0 0 1-13.1-17.08 82.73 82.73 0 0 1 8.24 19.86z" transform="translate(-25.69 -26.27)"/><path style="mix-blend-mode:multiply;fill:url(#dS)" d="M193.64 212.23a81.85 81.85 0 0 0 8.21 19.77 81.87 81.87 0 0 0-2.78-21.23 82.45 82.45 0 0 1-8.24-19.89 82.46 82.46 0 0 1 2.81 21.35z" transform="translate(-25.69 -26.27)"/><path style="mix-blend-mode:multiply;fill:url(#dT)" d="M190.83 190.9a82 82 0 0 1-2.83 21.33 81.7 81.7 0 0 0 2.81 21.23 81.7 81.7 0 0 0 2.81-21.23 82.42 82.42 0 0 1-2.81-21.34z" transform="translate(-25.69 -26.27)"/><path style="mix-blend-mode:multiply;fill:url(#dU)" d="M190.83 190.9a82.52 82.52 0 0 1-8.23 19.88 81.45 81.45 0 0 0-2.78 21.22 81.82 81.82 0 0 0 8.2-19.78 82.33 82.33 0 0 1 2.81-21.33z" transform="translate(-25.69 -26.27)"/><path style="mix-blend-mode:multiply;fill:url(#dV)" d="M177.73 208a81.6 81.6 0 0 0-8.18 19.79 82.18 82.18 0 0 0 13-17 82.29 82.29 0 0 1 8.23-19.89 82.16 82.16 0 0 1-13.05 17.1z" transform="translate(-25.69 -26.27)"/><path style="mix-blend-mode:multiply;fill:url(#dW)" d="M173.76 204a81.59 81.59 0 0 0-13 17 82.2 82.2 0 0 0 17-13 82.64 82.64 0 0 1 13.1-17.08 82.64 82.64 0 0 1-17.1 13.08z" transform="translate(-25.69 -26.27)"/><path style="mix-blend-mode:multiply;fill:url(#dX)" d="M171 199.13a81.58 81.58 0 0 0-17 13.05 81.6 81.6 0 0 0 19.76-8.18 82.4 82.4 0 0 1 17.07-13.11 81.7 81.7 0 0 1-19.83 8.24z" transform="translate(-25.69 -26.27)"/><path style="mix-blend-mode:multiply;fill:url(#dY)" d="M169.49 193.7a82 82 0 0 0-19.78 8.21 81.52 81.52 0 0 0 21.29-2.78 82.78 82.78 0 0 1 19.88-8.24 81.92 81.92 0 0 1-21.39 2.81z" transform="translate(-25.69 -26.27)"/><path style="mix-blend-mode:multiply;fill:url(#dZ)" d="M210.72 182.66a81.84 81.84 0 0 0 17-13 81.6 81.6 0 0 0-19.79 8.18 82.08 82.08 0 0 1-17.08 13.1 82.29 82.29 0 0 1 19.87-8.28z" transform="translate(-25.69 -26.27)"/><path style="mix-blend-mode:multiply;fill:url(#ea)" d="M207.91 177.79a81.54 81.54 0 0 0 13-17 82.2 82.2 0 0 0-17 13 82.24 82.24 0 0 1-13.1 17.07 82.64 82.64 0 0 1 17.1-13.07z" transform="translate(-25.69 -26.27)"/><path style="mix-blend-mode:multiply;fill:url(#eb)" d="M203.93 173.82a81.63 81.63 0 0 0 8.19-19.82 81.84 81.84 0 0 0-13.05 17 82.49 82.49 0 0 1-8.24 19.88 82.35 82.35 0 0 1 13.1-17.06z" transform="translate(-25.69 -26.27)"/><path style="mix-blend-mode:multiply;fill:url(#ec)" d="M190.83 190.89a82.38 82.38 0 0 1 8.24-19.89 81.87 81.87 0 0 0 2.78-21.23 81.85 81.85 0 0 0-8.21 19.78 82.33 82.33 0 0 1-2.81 21.33z" transform="translate(-25.69 -26.27)"/><path style="mix-blend-mode:multiply;fill:url(#ed)" d="M190.83 190.89a82.4 82.4 0 0 1 2.81-21.33 81.7 81.7 0 0 0-2.81-21.23 81.7 81.7 0 0 0-2.83 21.23 82 82 0 0 1 2.81 21.33z" transform="translate(-25.69 -26.27)"/><path style="mix-blend-mode:multiply;fill:url(#ee)" d="M188 169.56a81.82 81.82 0 0 0-8.2-19.78 81.45 81.45 0 0 0 2.8 21.22 82.36 82.36 0 0 1 8.23 19.88 82.33 82.33 0 0 1-2.83-21.32z" transform="translate(-25.69 -26.27)"/><path style="mix-blend-mode:multiply;fill:url(#ef)" d="M182.6 171a82.18 82.18 0 0 0-13-17 81.6 81.6 0 0 0 8.18 19.79 82.35 82.35 0 0 1 13.1 17.07A82.06 82.06 0 0 1 182.6 171z" transform="translate(-25.69 -26.27)"/><path style="mix-blend-mode:multiply;fill:url(#eg)" d="M177.73 173.82a82.2 82.2 0 0 0-17-13 81.59 81.59 0 0 0 13 17 82.59 82.59 0 0 1 17.07 13.1 82.59 82.59 0 0 1-13.07-17.1z" transform="translate(-25.69 -26.27)"/><path style="mix-blend-mode:multiply;fill:url(#eh)" d="M173.76 177.79a81.6 81.6 0 0 0-19.76-8.18 81.58 81.58 0 0 0 17 13 82.06 82.06 0 0 1 19.88 8.23 82 82 0 0 1-17.12-13.05z" transform="translate(-25.69 -26.27)"/><path style="mix-blend-mode:multiply;fill:url(#ei)" d="M190.83 190.89a82.36 82.36 0 0 1-19.83-8.23 81.52 81.52 0 0 0-21.24-2.78 82 82 0 0 0 19.78 8.21 82.33 82.33 0 0 1 21.34 2.8z" transform="translate(-25.69 -26.27)"/><path style="mix-blend-mode:multiply;fill:url(#ej)" d="M190.83 190.89a82.53 82.53 0 0 1-21.34-2.8 81.8 81.8 0 0 0-21.23 2.8 81.39 81.39 0 0 0 21.23 2.81 82.54 82.54 0 0 1 21.34-2.81z" transform="translate(-25.69 -26.27)"/></g><path d="M165.14 164.62z" style="mix-blend-mode:multiply;fill:url(#ek)"/></g><g data-name="T"><path style="fill:#fff;fill-rule:evenodd" d="M85.31 103.73s96.49 36.63 77.34 88.17c-17.19 46.26-36.4 63-39.3 66.55 0 0-1.23 1.56-2.29.72-.86-.69.63-2.36.63-2.36s28.17-38.5 36-67.15c7.19-26.25-21-54.21-78.23-74.84 0 0-7.55-3.37-5.08-9.24 2.33-5.54 10.93-1.85 10.93-1.85z"/><path style="fill:#fff;fill-rule:evenodd" d="M102.31 169.57c31 18 55.77 19 89.36-2.3 51.64-37.64 79.84-69.81 79.84-69.81s4.66-5.48 8.81-1.43c3.49 3.41-1.42 8.6-2.62 9.76-1.55 1.51-50 45.94-82.74 65.8-34 21.62-60.26 22.32-93.85-.27 0 0-2-1.36-1.36-2.3.43-.63 1-.17 2.57.55z"/></g><g data-name="TEx"><path style="fill:#005fdc" d="M484.8 97.14H370.62a4.22 4.22 0 0 0-4.22 4.22v3.37h57.48v154.8h7.56v-154.8h53.36zM493.53 97.14v135.13c0 19.66 7.31 27.23 27.48 27.23h53a153.7 153.7 0 0 1 28.68-37.77l29.62 37.77h9.86l-33.12-42.16a189.91 189.91 0 0 0 30.6-43.91h-8.38a156.49 156.49 0 0 1-26.74 37.91l-29.41-37.91h-9.68l33.09 42.65c-12.26 11.7-21 22.47-28.87 35.85h-47.89c-14.62 0-20.68-6.05-20.68-20.42v-58.08h30.68v-7.56h-30.68v-61.14h69.77c0-5.29 0-7.56-3-7.56z"/></g></g></svg>